/* XPM */
static char *result[] = {
/* columns rows colors chars-per-pixel */
"50 50 5 1 ",
"  c #143464",
". c #285CC4",
"X c #249FDE",
"o c #20D6C7",
"O c None",
/* pixels */
"OOOOOOOOOOOOOOOOOOOOOOOOOOOOOOOOOOOOOOOOOOOOOOOOOO",
"OOOOOOOOOOOOOOOOOOOOOOOOOOOOOOOOOOOOOOOOOOOOOOOOOO",
"OOOOOOOOOOOOOOOOOOOOOOOOOOOOOOOOOOOOOOOOOOOOOOOOOO",
"OOOOOOOOOOOOOOOOOOOOOOOOOOOOOOOOOOOOOOOOOOOOOOOOOO",
"OOOOOOOOOOOOOOOOOOOOOOOOOOOOOOOOOOOOOOOOOOOOOOOOOO",
"OOOOOOOOOOOOOOOOOOOOOOOOOOOOOOOOOOOOOOOOOOOOOOOOOO",
"OOOOOOOOOOOOOOOOOOOOOOOOOOOOOOOOOOOOOOOOOOOOOOOOOO",
"OOOOOOOOOOOOOOOOOOOOOOOOOOOOOOOOOOOOOOOOOOOOOOOOOO",
"OOOOOOOOOOOOOOOOOOOOOOOOOOOOOOOOOOOOOOOOOOOOOOOOOO",
"OOOOOOOOOOOOOOOOOOOOOOOOOOOOOOOOOOOOOOOOOOOOOOOOOO",
"OOOOOOOOOOOOOOOOOOOOOOOOOOOOOOOOOOOOOOOOOOOOOOOOOO",
"OOOOOOOOOOOOOOOOOOOOOOOOOOOOOOOOOOOOOOOOOOOOOOOOOO",
"OOOOOOOOOOOOOOOOOOOOOOOOOOOOOOOOOOOOOOOOOOOOOOOOOO",
"OOOOOOOOOOOOOOOOOOOOOOOOOOOOOOOOOOOOOOOOOOOOOOOOOO",
"OOOOOOOOOOOOOOOOOOOOOOOOOOOOOOOOOOOOOOOOOOOOOOOOOO",
"OOOOOOOOOOOOOOOOOOOOOOOOOOOOOOOOOOOOOOOOOOOOOOOOOO",
"OOOOOOOOOOOOOOOOOOOOOOOOOOOOOOOOOOOOOOOOOOOOOOOOOO",
"OOOOOOOOOOOOOOOOOOOOOOOOOOOOOOOOOOOOOOOOOOOOOOOOOO",
"OOOOOOOOOOOOOOOOOOOOOOOOOOOOOOOOOOOOOOOOOOOOOOOOOO",
"OOOOOOOOOOOOOOOOOOOOOOOOOOOOOOOOOOOOOOOOOOOOOOOOOO",
"OOOOOOOOOOOOOOOOOOOOOOOOOOOOOOOOOOOOOOOOOOOOOOOOOO",
"OOOOOOOOOOOOOOOOO                OOOOOOOOOOOOOOOOO",
"OOOOOOOOOOOOOO   oooooooooooooooo   OOOOOOOOOOOOOO",
"OOOOOOOOOOOO  ooooXXXXXXXXXXXXXXoooo  OOOOOOOOOOOO",
"OOOOOOOOOOO oooXXXXXXXXXXXXXXXXXXXXooo OOOOOOOOOOO",
"OOOOOOOOOO ooXXXXoooXXXXXXXXXXXXXXXXXoo OOOOOOOOOO",
"OOOOOOOOOO oXXXooooXXXXXXXXXXXXXXXXXXXoo OOOOOOOOO",
"OOOOOOOOO ooXXoooXXXXXXXXXXXXXXXXXXXXXXo OOOOOOOOO",
"OOOOOOOO ooXXooXXXXXXXXXXXXXXXXXXXXXXXXoo OOOOOOOO",
"OOOOOOOO oXXXXXXXXXXXXXXXXXXXXXXXXXXXXXXo OOOOOOOO",
"OOOOOOOO oXXXXXXXXXXXXXXXXXXXXXXXXXXXXXXo OOOOOOOO",
"OOOOOOO ooXXXXXXXXXXXXXXXXXXXXXXXXXXXXXXoo OOOOOOO",
"OOOOOOO oXXXXXXXXXXXXXXXXXXXXXXXXXXXXXXXXo OOOOOOO",
"OOOOOOO oXXXXXXXXXX............XXXXXXXXXXo OOOOOOO",
"OOOOOOO oXXXX........................XXXXo OOOOOOO",
"OOOOOOO ooX............................Xoo OOOOOOO",
"OOOOOOO oo..............................oo OOOOOOO",
"OOOOOOOO o..............................o OOOOOOOO",
"OOOOOOOO oo............................oo OOOOOOOO",
"OOOOOOOOO ooo........................ooo OOOOOOOOO",
"OOOOOOOOOO oooooooooooooooooooooooooooo OOOOOOOOOO",
"OOOOOOOOOOO                            OOOOOOOOOOO",
"OOOOOOOOOOOOOOOOOOOOOOOOOOOOOOOOOOOOOOOOOOOOOOOOOO",
"OOOOOOOOOOOOOOOOOOOOOOOOOOOOOOOOOOOOOOOOOOOOOOOOOO",
"OOOOOOOOOOOOOOOOOOOOOOOOOOOOOOOOOOOOOOOOOOOOOOOOOO",
"OOOOOOOOOOOOOOOOOOOOOOOOOOOOOOOOOOOOOOOOOOOOOOOOOO",
"OOOOOOOOOOOOOOOOOOOOOOOOOOOOOOOOOOOOOOOOOOOOOOOOOO",
"OOOOOOOOOOOOOOOOOOOOOOOOOOOOOOOOOOOOOOOOOOOOOOOOOO",
"OOOOOOOOOOOOOOOOOOOOOOOOOOOOOOOOOOOOOOOOOOOOOOOOOO",
"OOOOOOOOOOOOOOOOOOOOOOOOOOOOOOOOOOOOOOOOOOOOOOOOOO",
"OOOOOOOOOOOOOOOOOOOOOOOOOOOOOOOOOOOOOOOOOOOOOOOOOO"
};
