/* XPM */
static char *result[] = {
/* columns rows colors chars-per-pixel */
"50 50 5 1 ",
"  c #143464",
". c #285CC4",
"X c #249FDE",
"o c #20D6C7",
"O c None",
/* pixels */
"OOOOOOOOOOOOOOOOOOOOOOOOOOOOOOOOOOOOOOOOOOOOOOOOOO",
"OOOOOOOOOOOOOOOOOOOOOOOOOOOOOOOOOOOOOOOOOOOOOOOOOO",
"OOOOOOOOOOOOOOOOOOOOOOOOOOOOOOOOOOOOOOOOOOOOOOOOOO",
"OOOOOOOOOOOOOOOOOOOOOOOOOOOOOOOOOOOOOOOOOOOOOOOOOO",
"OOOOOOOOOOOOOOOOOOOOOOOOOOOOOOOOOOOOOOOOOOOOOOOOOO",
"OOOOOOOOOOOOOOOOOOOOOOOOOOOOOOOOOOOOOOOOOOOOOOOOOO",
"OOOOOOOOOOOOOOOOOOOOOOOOOOOOOOOOOOOOOOOOOOOOOOOOOO",
"OOOOOOOOOOOOOOOOOOOOOOOOOOOOOOOOOOOOOOOOOOOOOOOOOO",
"OOOOOOOOOOOOOOOOOOOOOOOOOOOOOOOOOOOOOOOOOOOOOOOOOO",
"OOOOOOOOOOOOOOOOOOOOOOOOOOOOOOOOOOOOOOOOOOOOOOOOOO",
"OOOOOOOOOOOOOOOOOOOOOOOOOOOOOOOOOOOOOOOOOOOOOOOOOO",
"OOOOOOOOOOOOOOOOOOOOOOOOOOOOOOOOOOOOOOOOOOOOOOOOOO",
"OOOOOOOOOOOOOOOOOOOOOOOOOOOOOOOOOOOOOOOOOOOOOOOOOO",
"OOOOOOOOOOOOOOOOOOOOOOOOOOOOOOOOOOOOOOOOOOOOOOOOOO",
"OOOOOOOOOOOOOOOOOOOOOOOOOOOOOOOOOOOOOOOOOOOOOOOOOO",
"OOOOOOOOOOOOOOOOOOOOOOOOOOOOOOOOOOOOOOOOOOOOOOOOOO",
"OOOOOOOOOOOOOOOOOOOOOOOOOOOOOOOOOOOOOOOOOOOOOOOOOO",
"OOOOOOOOOOOOOOOOOOOOOOOOOOOOOOOOOOOOOOOOOOOOOOOOOO",
"OOOOOOOOOOOOOOOOOOOOOOOOOOOOOOOOOOOOOOOOOOOOOOOOOO",
"OOOOOOOOOOOOOOOOOOOOOOOOOOOOOOOOOOOOOOOOOOOOOOOOOO",
"OOOOOOOOOOOOOOOOOOO           OOOOOOOOOOOOOOOOOOOO",
"OOOOOOOOOOOOOOOOO  ooooooooooo   OOOOOOOOOOOOOOOOO",
"OOOOOOOOOOOOOO   oooXXXXXXXXXoooo   OOOOOOOOOOOOOO",
"OOOOOOOOOOOO  ooooXXXXXXXXXXXXXXoooo  OOOOOOOOOOOO",
"OOOOOOOOOOO oooXXXXXXXXXXXXXXXXXXXXooo OOOOOOOOOOO",
"OOOOOOOOOO ooXXXXXooXXXXXXXXXXXXXXXXXoo OOOOOOOOOO",
"OOOOOOOOOO oXXXooooXXXXXXXXXXXXXXXXXXXo OOOOOOOOOO",
"OOOOOOOOO ooXXooooXXXXXXXXXXXXXXXXXXXXoo OOOOOOOOO",
"OOOOOOOO ooXXooXXXXXXXXXXXXXXXXXXXXXXXXoo OOOOOOOO",
"OOOOOOOO oXXXXXXXXXXXXXXXXXXXXXXXXXXXXXXo OOOOOOOO",
"OOOOOOOO oXXXXXXXXXXXXXXXXXXXXXXXXXXXXXXo OOOOOOOO",
"OOOOOOO ooXXXXXXXXXXXXXXXXXXXXXXXXXXXXXXoo OOOOOOO",
"OOOOOOO oXXXXXXXXXXXXXXXXXXXXXXXXXXXXXXXXo OOOOOOO",
"OOOOOOO oXXXXXXXXX..............XXXXXXXXXo OOOOOOO",
"OOOOOOO oXXXXX......................XXXXXo OOOOOOO",
"OOOOOOO ooXX..........................XXoo OOOOOOO",
"OOOOOOO oo..............................oo OOOOOOO",
"OOOOOOO  o..............................o  OOOOOOO",
"OOOOOOOO oo............................oo OOOOOOOO",
"OOOOOOOOO ooo........................ooo OOOOOOOOO",
"OOOOOOOOOO oooooooooooooooooooooooooooo OOOOOOOOOO",
"OOOOOOOOOOO                            OOOOOOOOOOO",
"OOOOOOOOOOOOOOOOOOOOOOOOOOOOOOOOOOOOOOOOOOOOOOOOOO",
"OOOOOOOOOOOOOOOOOOOOOOOOOOOOOOOOOOOOOOOOOOOOOOOOOO",
"OOOOOOOOOOOOOOOOOOOOOOOOOOOOOOOOOOOOOOOOOOOOOOOOOO",
"OOOOOOOOOOOOOOOOOOOOOOOOOOOOOOOOOOOOOOOOOOOOOOOOOO",
"OOOOOOOOOOOOOOOOOOOOOOOOOOOOOOOOOOOOOOOOOOOOOOOOOO",
"OOOOOOOOOOOOOOOOOOOOOOOOOOOOOOOOOOOOOOOOOOOOOOOOOO",
"OOOOOOOOOOOOOOOOOOOOOOOOOOOOOOOOOOOOOOOOOOOOOOOOOO",
"OOOOOOOOOOOOOOOOOOOOOOOOOOOOOOOOOOOOOOOOOOOOOOOOOO",
"OOOOOOOOOOOOOOOOOOOOOOOOOOOOOOOOOOOOOOOOOOOOOOOOOO"
};
