/* XPM */
static char *result[] = {
/* columns rows colors chars-per-pixel */
"21 47 104 2 ",
"   c #743612",
".  c #7F3B14",
"X  c #753C63",
"o  c #823C11",
"O  c #823D12",
"+  c #843E14",
"@  c #853F14",
"#  c #994E0F",
"$  c #864012",
"%  c #8E4610",
"&  c #8D4415",
"*  c #914912",
"=  c #984D12",
"-  c #9C4E16",
";  c #9C5110",
":  c #9D5210",
">  c #9D5212",
",  c #A05513",
"<  c #A25612",
"1  c #A35712",
"2  c #A35713",
"3  c #A25714",
"4  c #A45814",
"5  c #A45815",
"6  c #AA5D16",
"7  c #AB5E16",
"8  c #AE5F14",
"9  c #B16216",
"0  c #B9691A",
"q  c #B96A1A",
"w  c #BA6A1A",
"e  c #BF6E1B",
"r  c #C06F1B",
"t  c #C97214",
"y  c #993B42",
"u  c #DE851C",
"i  c #FD8F03",
"p  c #F98F07",
"a  c #FD9308",
"s  c #ED8D14",
"d  c #EE901C",
"f  c #F79617",
"g  c #FB9511",
"h  c #F49419",
"j  c #F0921E",
"k  c #F1941F",
"l  c #F99718",
"z  c #F99819",
"x  c #F8991F",
"c  c #DB8825",
"v  c #E08A23",
"b  c #E18C26",
"n  c #E08B28",
"m  c #E49029",
"M  c #EA942C",
"N  c #EB952C",
"B  c #F29620",
"V  c #F29622",
"C  c #F19624",
"Z  c #F69A22",
"A  c #F79B23",
"S  c #F19827",
"D  c #F49B27",
"F  c #F99D24",
"G  c #F39B28",
"H  c #F39A29",
"J  c #F39B29",
"K  c #F49C29",
"L  c #F49C2A",
"P  c #F29E30",
"I  c #F9A02B",
"U  c #F7A232",
"Y  c #F6A233",
"T  c #F6A73E",
"R  c #F8A73C",
"E  c #F6A841",
"W  c #F7A942",
"Q  c #F8AB45",
"!  c #F6B050",
"~  c #F7B050",
"^  c #F7B055",
"/  c #F7B254",
"(  c #F6B255",
")  c #F7B457",
"_  c #F6B764",
"`  c #F7B962",
"'  c #F7BA67",
"]  c #F6BB69",
"[  c #F8BC6A",
"{  c #F8C073",
"}  c #FBC272",
"|  c #F9C274",
" . c #FAC77D",
".. c #B31D88",
"X. c #CD189C",
"o. c #A94990",
"O. c #898989",
"+. c #F6C786",
"@. c #F9CA86",
"#. c #F9CD8C",
"$. c #FBD49B",
"%. c #FAD49C",
"&. c #FCE4BB",
"*. c None",
/* pixels */
"*.*.*.*.*.*.*.*.*.*.*.*.*.*.*.*.*.*.*.*.*.",
"*.*.*.*.*.*.*.*.*.*.*.*.*.*.*.*.*.*.*.*.*.",
"*.*.*.*.*.*.*.*.*.*.*.*.*.*.*.*.*.*.*.*.*.",
"*.*.*.*.*.*.*.*.*.*.*.*.*.*.*.*.*.*.*.*.*.",
"*.*.*.*.*.*.*.*.*.*.*.*.*.*.*.*.*.*.*.*.*.",
"*.*.*.*.*.*.*.*.*.*.*.*.*.*.*.*.*.*.*.*.*.",
"*.*.*.*.*.*.*.*.*.*.*.*.*.*.*.*.*.*.*.*.*.",
"*.*.*.*.*.*.*.*.*.*.*.*.*.*.*.*.*.*.*.*.*.",
"*.*.*.*.*.*.*.*.*.*.*.*.*.*.*.*.*.*.*.*.*.",
"*.*.*.*.*.*.*.*.*.*.*.O.*.*.*.*.*.*.*.*.*.",
"*.*.*.*.*.*.*.*.*.*.*.*.*.*.*.*.*.*.*.*.*.",
"*.*.*.*.*.*.*.*.*.*.*.*.*.*.*.*.*.*.*.*.*.",
"*.*.*.*.*.*.*.*.*.*.*.*.*.*.*.*.*.*.*.*.*.",
"*.*.*.*.*.*.*.*.*.*.*.*.*.*.*.*.*.*.*.*.*.",
"*.*.*.*.*.O.*.*.O.*.*.*.*.*.*.*.*.*.*.*.*.",
"*.*.*.*.*.*.*.*.O.*.*.*.*.*.*.*.*.*.*.*.*.",
"*.*.*.*.*.*.*.*.*.*.*.*.*.*.*.*.*.*.*.*.*.",
"*.*.*.*.*.*.*.*.*.*.*.*.*.*.*.*.*.*.*.*.*.",
"*.*.*.*.*.*.*.*.*.*.*.*.*.*.*.*.*.*.*.*.*.",
"*.*.*.*.*.*.*.*.*.*.*.*.*.*.*.*.*.*.*.*.*.",
"*.*.*.*.*.*./  .$.} &.T P *.*.*.*.*.*.*.*.",
"*.*.*.*.*.` ! R F l z g Z * *.*.*.*.*.*.*.",
"*.*.*.*.*.| I x A A A P Z + *.*.*.*.*.*.*.",
"*.*.*.*.*.~ E & *.*.*.  Z O *.*.*.*.*.*.*.",
"*.*.*.*.*.#.E & *.*.*.  Z O *.*.*.*.*.*.*.",
"*.*.*.*.*.) G . @ & - - Z O *.*.*.*.*.*.*.",
"*.*.*.*.*.@.G f f Z Z l Z O *.*.*.*.*.*.*.",
"*.*.*.*.*.%.' y y g l a i % *.*.*.*.*.*.*.",
"*.*.*.*.*.*.y K Q Z z p $ *.*.*.*.*.*.*.*.",
"*.*.*.*.*.y *.l L z s $ *.*.*.*.*.*.*.*.*.",
"*.*.*.*.*.*.X *.8 > o *.*.*.*.*.*.*.*.*.*.",
"*.*.*.*.*.*.*.*.t t = *.*.*.*.*.*.*.*.*.*.",
"*.*.*.*.*.*.*.*.k b X.X.X.o...*.*.*.*.*.*.",
"*.*.*.*.*.*.*.*.n d , *.*.X.*.*.*.*.*.*.*.",
"*.*.*.*.*.*.*...N N 2 *.*.*.*.*.*.*.*.*.*.",
"*.*.*.*.*.*.*.*._ B # *.*.*.*.*.*.*.*.*.*.",
"*.*.*.*.*.*.*.*.^ C : *.*.*.*.*.*.*.*.*.*.",
"*.*.*.*...*.*.*.+.j 1 *.*.*.*.*.*.*.*.*.*.",
"*.*.*.*.*.*.*.*.] S ; *.*.*.*.*.*.*.*.*.*.",
"*.*.*.*.*.*.*.*.[ S < *.*.*.*.*.*.*.*.*.*.",
"*.*.*.*.*.*.*.*.W V e 6 g Y *.*.*.*.*.*.*.",
"*.*.*.*.*.*.*.*.P H w 5 h *.*.*.*.*.*.*.*.",
"*.*.*.*.*.*.*.*.( J 0 3 u *.*.*.*.*.*.*.*.",
"*.*.*.*.*.*.*.*.P D q 4 l U *.*.*.*.*.*.*.",
"*.*.*.*.*.*.*.*.{ D w 7 v *.*.*.*.*.*.*.*.",
"*.*.*.*.*.*.*.*.P m r 9 K K *.*.*.*.*.*.*.",
"*.*.*.*.*.*.*.*.M c r *.*.X *.*.*.*.*.*.*."
};
