/* XPM */
static char *result[] = {
/* columns rows colors chars-per-pixel */
"21 47 104 2 ",
"   c #743612",
".  c #7F3B14",
"X  c #753C63",
"o  c #823C11",
"O  c #823D12",
"+  c #843E14",
"@  c #994E0F",
"#  c #864012",
"$  c #8E4610",
"%  c #8D4415",
"&  c #914912",
"*  c #984D12",
"=  c #9C4E16",
"-  c #9C5110",
";  c #9D5210",
":  c #9D5212",
">  c #A05513",
",  c #A35712",
"<  c #A35713",
"1  c #A25714",
"2  c #A45814",
"3  c #A45815",
"4  c #A65A14",
"5  c #AA5D16",
"6  c #AB5E16",
"7  c #AE5F14",
"8  c #B16216",
"9  c #B9691A",
"0  c #B96A1A",
"q  c #BA6A1A",
"w  c #BF6E1B",
"e  c #C06F1B",
"r  c #C97214",
"t  c #993B42",
"y  c #DE851C",
"u  c #FD8F03",
"i  c #F98F07",
"p  c #FD9308",
"a  c #ED8D14",
"s  c #EE901C",
"d  c #F79617",
"f  c #FB9511",
"g  c #F49419",
"h  c #F0921E",
"j  c #F1941F",
"k  c #F99718",
"l  c #F99819",
"z  c #F8991F",
"x  c #DB8825",
"c  c #E08A23",
"v  c #E18C26",
"b  c #E08B28",
"n  c #E49029",
"m  c #EA942C",
"M  c #EB952C",
"N  c #F29620",
"B  c #F29622",
"V  c #F19624",
"C  c #F49822",
"Z  c #F69A22",
"A  c #F79B23",
"S  c #F19827",
"D  c #F49B27",
"F  c #F99D24",
"G  c #F39B28",
"H  c #F39A29",
"J  c #F39B29",
"K  c #F49C29",
"L  c #F49C2A",
"P  c #F29E30",
"I  c #F9A02B",
"U  c #F7A232",
"Y  c #F6A233",
"T  c #F6A73E",
"R  c #F8A73C",
"E  c #F6A841",
"W  c #F7A942",
"Q  c #F8AB45",
"!  c #F6B050",
"~  c #F7B050",
"^  c #F7B055",
"/  c #F7B254",
"(  c #F6B255",
")  c #F7B457",
"_  c #F6B764",
"`  c #F7B962",
"'  c #F7BA67",
"]  c #F8BC6A",
"[  c #F9BD6A",
"{  c #F8C073",
"}  c #FBC272",
"|  c #F9C274",
" . c #FAC77D",
".. c #B31D88",
"X. c #CD189C",
"o. c #A94990",
"O. c #898989",
"+. c #F6C786",
"@. c #F9CA86",
"#. c #F9CD8C",
"$. c #FBD49B",
"%. c #FAD49C",
"&. c #FCE4BB",
"*. c None",
/* pixels */
"*.*.*.*.*.*.*.*.*.*.*.*.*.*.*.*.*.*.*.*.*.",
"*.*.*.*.*.*.*.*.*.*.*.*.*.*.*.*.*.*.*.*.*.",
"*.*.*.*.*.*.*.*.*.*.*.*.*.*.*.*.*.*.*.*.*.",
"*.*.*.*.*.*.*.*.*.*.*.*.*.*.*.*.*.*.*.*.*.",
"*.*.*.*.*.*.*.*.*.*.*.*.*.*.*.*.*.*.*.*.*.",
"*.*.*.*.*.*.*.*.*.*.*.*.*.*.*.*.*.*.*.*.*.",
"*.*.*.*.*.*.*.*.*.*.*.*.*.*.*.*.*.*.*.*.*.",
"*.*.*.*.*.*.*.*.*.*.*.*.*.*.*.*.*.*.*.*.*.",
"*.*.*.*.*.*.*.*.*.*.*.*.*.*.*.*.*.*.*.*.*.",
"*.*.*.*.*.*.*.*.*.*.*.*.*.*.*.*.*.*.*.*.*.",
"*.*.*.*.*.*.*.*.*.*.*.*.*.*.*.*.*.*.*.*.*.",
"*.*.*.*.*.*.*.*.*.*.*.*.*.*.*.*.*.*.*.*.*.",
"*.*.*.*.*.*.*.*.*.*.*.*.*.*.*.*.*.*.*.*.*.",
"*.*.*.*.*.*.*.*.*.O.*.*.*.*.*.*.*.*.*.*.*.",
"*.*.*.*.*.*.*.*.*.O.*.*.*.*.*.*.*.*.*.*.*.",
"*.*.*.*.*.*.*.*.*.*.*.*.*.*.*.*.*.*.*.*.*.",
"*.*.*.*.*.*.*.*.*.*.*.*.*.*.*.*.*.*.*.*.*.",
"*.*.*.*.*.*.*.*.*.*.*.*.*.*.*.*.*.*.*.*.*.",
"*.*.*.*.*.*.*.*.O.*.*.*.*.*.*.*.*.*.*.*.*.",
"*.*.*.*.*.*.*.*.*.*.*.O.*.*.*.*.*.*.*.*.*.",
"*.*.*.*.*.*./  .$.} &.T P *.*.*.*.*.*.*.*.",
"*.*.*.*.*.` ! R F k l f Z & *.*.*.*.*.*.*.",
"*.*.*.*.*.| I z A A A P Z + *.*.*.*.*.*.*.",
"*.*.*.*.*.~ E % *.*.*.  Z O *.t *.*.*.*.*.",
"*.*.*.*.*.#.E % *.X.X.  Z O *.t *.*.*.*.*.",
"*.*.*.*.*.) G . X.% = = Z O *.t *.*.*.*.*.",
"*.*.*.*.*.@.o.X.d Z Z k Z O t *.*.*.*.*.*.",
"*.*.*.*.*.%.' [ C f k p u $ *.*.*.*.*.*.*.",
"*.*.*.*.*.*.T K Q Z l i # *.*.*.*.*.*.*.*.",
"*.*.*.*.*.*.*.k L l a # *.*.*.*.*.*.*.*.*.",
"*.*.*.*.*.*.*.*.7 : o *.*.*.*.*.*.*.*.*.*.",
"*.*.*.*.*.*.*.*.r r * *.*.*.*.*.*.*.*.*.*.",
"*.*.*.*.*.*.*.*.j v 4 *.*.X *.*.*.*.*.*.*.",
"*.*.*.*.*.*.*.*.b s > *.*.*.*.*.*.*.*.*.*.",
"*.*.*.*.*.*.*.*.M M < *.*.*.*.*.*.*.*.*.*.",
"*.*.*.*.*.*.*.*._ N @ *.*.*.*.*.*.*.*.*.*.",
"*.*.*.*.*.*.*.*.^ V ; *.*.*.*.*.*.*.*.*.*.",
"*.*.*.*.*...*.*.+.h , *.*.*.*.*.*.*.*.*.*.",
"*.*.*.*.*.*.......S - *.*.*.*.*.*.*.*.*.*.",
"*.*.*.*.*.*.*.*.] ........*.*...*.*.*.*.*.",
"*.*.*.*.*.*.*.*.W B w 5 f Y *.*.*.*.*.*.*.",
"*.*.*.*.*.*.*.*.P H q 3 g *.*.*.*.*.*.*.*.",
"*.*.*.*.*.*.*.*.( J 9 1 y *.*.*.*.*.*.*.*.",
"*.*.*.*.*.*.*.*.P D 0 2 k U *.*.*.*.*.*.*.",
"*.*.*.*.*.*.*.*.{ D q 6 c *.*.*.*.*.*.*.*.",
"*.*.*.*.*.*.*.*.P n e 8 K K *.*.*.*.*.*.*.",
"*.*.*.*.*.*.*.*.m x e *.*.*.*.*.*.*.*.*.*."
};
