/* XPM */
static char *result[] = {
/* columns rows colors chars-per-pixel */
"21 47 105 2 ",
"   c #743612",
".  c #7F3B14",
"X  c #823D12",
"o  c #843E14",
"O  c #853F14",
"+  c #994E0F",
"@  c #864012",
"#  c #8D4415",
"$  c #914912",
"%  c #984D12",
"&  c #9C5110",
"*  c #9D5210",
"=  c #9D5212",
"-  c #A05513",
";  c #A25612",
":  c #A35712",
">  c #A35713",
",  c #A25714",
"<  c #A45814",
"1  c #A45815",
"2  c #A65A14",
"3  c #AA5D16",
"4  c #AB5E16",
"5  c #AE5F14",
"6  c #B16216",
"7  c #B9691A",
"8  c #B96A1A",
"9  c #BA6A1A",
"0  c #BF6E1B",
"q  c #C06F1B",
"w  c #C97214",
"e  c #993B42",
"r  c #A62B5E",
"t  c #C03674",
"y  c #DE851C",
"u  c #FD8F03",
"i  c #F98F07",
"p  c #FD9308",
"a  c #ED8D14",
"s  c #EE901C",
"d  c #F79617",
"f  c #FB9511",
"g  c #F49419",
"h  c #F0921E",
"j  c #F1941F",
"k  c #F99718",
"l  c #F99819",
"z  c #F8991F",
"x  c #DB8825",
"c  c #E08A23",
"v  c #E18C26",
"b  c #E08B28",
"n  c #E49029",
"m  c #EA942C",
"M  c #EB952C",
"N  c #F29620",
"B  c #F29622",
"V  c #F19624",
"C  c #F49822",
"Z  c #F69A22",
"A  c #F79B23",
"S  c #F19827",
"D  c #F49B27",
"F  c #F99D24",
"G  c #F39B28",
"H  c #F39A29",
"J  c #F39B29",
"K  c #F49C29",
"L  c #F49C2A",
"P  c #F29E30",
"I  c #F9A02B",
"U  c #F7A232",
"Y  c #F6A233",
"T  c #F6A73E",
"R  c #F8A73C",
"E  c #F6A841",
"W  c #F7A942",
"Q  c #F8AB45",
"!  c #F6B050",
"~  c #F7B050",
"^  c #F7B055",
"/  c #F7B254",
"(  c #F6B255",
")  c #F7B457",
"_  c #F6B764",
"`  c #F7B962",
"'  c #F7BA67",
"]  c #F6BB69",
"[  c #F8BC6A",
"{  c #F9BD6A",
"}  c #F8C073",
"|  c #FBC272",
" . c #F9C274",
".. c #FAC77D",
"X. c #B31D88",
"o. c #CD189C",
"O. c #A94990",
"+. c #898989",
"@. c #F6C786",
"#. c #F9CA86",
"$. c #F9CD8C",
"%. c #FBD49B",
"&. c #FAD49C",
"*. c #FCE4BB",
"=. c None",
/* pixels */
"=.=.=.=.=.=.=.=.=.=.=.=.=.=.=.=.=.=.=.=.=.",
"=.=.=.=.=.=.=.=.=.=.=.=.=.=.=.=.=.=.=.=.=.",
"=.=.=.=.=.=.=.=.=.=.=.=.=.=.=.=.=.=.=.=.=.",
"=.=.=.=.=.=.=.=.=.=.=.=.=.=.=.=.=.=.=.=.=.",
"=.=.=.=.=.=.=.=.=.=.=.=.=.=.=.=.=.=.=.=.=.",
"=.=.=.=.=.=.=.=.=.=.=.=.=.=.=.=.=.=.=.=.=.",
"=.=.=.=.=.=.=.=.=.=.=.=.=.=.=.=.=.=.=.=.=.",
"=.=.=.=.=.=.=.=.=.=.=.=.=.=.=.=.=.=.=.=.=.",
"=.=.=.=.=.=.=.=.=.=.=.=.=.=.=.=.=.=.=.=.=.",
"=.=.=.=.=.=.=.=.=.=.=.=.=.=.=.=.=.=.=.=.=.",
"=.=.=.=.=.=.=.=.=.=.=.=.=.=.=.=.=.=.=.=.=.",
"=.=.=.=.=.=.=.=.=.=.=.=.=.=.=.=.=.=.=.=.=.",
"=.=.=.=.=.=.=.=.=.=.=.=.=.=.=.=.=.=.=.=.=.",
"=.=.=.=.=.=.=.=.=.=.=.=.=.=.=.=.=.=.=.=.=.",
"=.=.=.=.=.=.=.=.+.=.=.=.=.=.=.=.=.=.=.=.=.",
"=.=.=.=.=.=.=.=.+.=.=.=.=.=.=.=.=.=.=.=.=.",
"=.=.=.=.=.=.=.=.=.=.=.=.=.=.=.=.=.=.=.=.=.",
"=.=.=.=.=.=.=.=.=.=.=.=.=.=.=.=.=.=.=.=.=.",
"=.=.=.=.=.=.=.=.+.=.=.=.=.=.=.=.=.=.=.=.=.",
"=.=.=.=.=.=.=.=.=.=.=.=.+.=.=.=.=.=.=.=.=.",
"=.=.=.=.=.=./ ..%.| *.T P =.=.=.=.=.=.=.=.",
"=.=.=.=.=.` ! R F k l f Z $ =.=.=.=.=.=.=.",
"=.=.=.=.=. .I z A A A P Z o =.=.=.=.=.=.=.",
"=.=.=.=.=.~ E # =.=.=.  Z X =.=.=.=.=.=.=.",
"=.=.=.=.=.$.E X.X.X.=.  Z X =.=.=.=.=.=.=.",
"=.=.=.=.=.) G . O # X.X.Z X =.=.=.=.=.=.=.",
"=.=.=.=.=.#.G d d Z Z k t X =.=.=.=.=.=.=.",
"=.=.=.=.=.&.' { C f k p u r =.=.=.=.=.=.=.",
"=.=.=.=.=.=.T K Q Z l i @ =.=.=.=.=.=.=.=.",
"=.=.=.=.=.=.=.k L l a @ =.=.=.=.=.=.=.=.=.",
"=.=.=.=.=.=.=.=.5 = e e e e X.=.=.=.=.=.=.",
"=.=.=.=.=.=.=.=.w w % =.=.=.=.=.=.=.=.=.=.",
"=.=.=.=.=.=.=.=.j v 2 =.=.=.=.=.=.=.=.=.=.",
"=.=.=.=.=.=.=.=.b s - =.=.=.=.=.=.=.=.=.=.",
"=.=.=.=.=.=.=.=.M M > =.=.=.=.=.=.=.=.=.=.",
"=.=.=.=.=.o.o.=._ N + =.=.=.=.=.=.=.=.=.=.",
"=.=.=.O.o.=.=.=.^ V * =.=.=.=.=.=.=.=.=.=.",
"=.=.=.=.=.o.=.=.@.h : =.=.=.=.=.=.=.=.=.=.",
"=.=.=.=.=.=.=.=.] S & =.=.=.=.=.=.=.=.=.=.",
"=.=.=.=.=.=.=.=.[ S ; =.=.=.=.=.=.=.=.=.=.",
"=.=.=.=.=.=.=.=.W B 0 3 f Y =.=.=.=.=.=.=.",
"=.=.=.=.=.=.=.=.P H 9 1 g =.=.=.=.=.=.=.=.",
"=.=.=.=.=.=.=.=.( J 7 , y =.=.=.=.=.=.=.=.",
"=.=.=.=.=.=.=.=.P D 8 < k U =.=.=.=.=.=.=.",
"=.=.=.=.=.=.=.=.} D 9 4 c =.=.=.=.=.=.=.=.",
"=.=.=.=.=.=.=.=.P n q 6 K K =.=.=.=.=.=.=.",
"=.=.=.=.=.=.=.=.m x q =.=.=.=.=.=.=.=.=.=."
};
