/* XPM */
static char *result[] = {
/* columns rows colors chars-per-pixel */
"21 47 106 2 ",
"   c #743612",
".  c #7F3B14",
"X  c #753C63",
"o  c gray48",
"O  c #823C11",
"+  c #823D12",
"@  c #843E14",
"#  c #853F14",
"$  c #994E0F",
"%  c #864012",
"&  c #8E4610",
"*  c #8D4415",
"=  c #914912",
"-  c #984D12",
";  c #9C4E16",
":  c #9C5110",
">  c #9D5210",
",  c #9D5212",
"<  c #A05513",
"1  c #A25612",
"2  c #A35712",
"3  c #A35713",
"4  c #A25714",
"5  c #A45814",
"6  c #A45815",
"7  c #AA5D16",
"8  c #AB5E16",
"9  c #AE5F14",
"0  c #B16216",
"q  c #B9691A",
"w  c #B96A1A",
"e  c #BA6A1A",
"r  c #BF6E1B",
"t  c #C06F1B",
"y  c #C97214",
"u  c #993B42",
"i  c #BF3473",
"p  c #DE851C",
"a  c #FD8F03",
"s  c #F98F07",
"d  c #FD9308",
"f  c #ED8D14",
"g  c #EE901C",
"h  c #F79617",
"j  c #FB9511",
"k  c #F49419",
"l  c #F0921E",
"z  c #F99718",
"x  c #F99819",
"c  c #F8991F",
"v  c #DB8825",
"b  c #E08A23",
"n  c #E08B28",
"m  c #E49029",
"M  c #EA942C",
"N  c #EB952C",
"B  c #F29620",
"V  c #F29622",
"C  c #F19624",
"Z  c #F49822",
"A  c #F69A22",
"S  c #F79B23",
"D  c #F19827",
"F  c #F49B27",
"G  c #F99D24",
"H  c #F39B28",
"J  c #F39A29",
"K  c #F39B29",
"L  c #F49C29",
"P  c #F49C2A",
"I  c #F29E30",
"U  c #F9A02B",
"Y  c #F7A232",
"T  c #F6A233",
"R  c #F6A73E",
"E  c #F8A73C",
"W  c #F6A841",
"Q  c #F7A942",
"!  c #F8AB45",
"~  c #F6B050",
"^  c #F7B050",
"/  c #F7B055",
"(  c #F7B254",
")  c #F6B255",
"_  c #F7B457",
"`  c #F6B764",
"'  c #F7B962",
"]  c #F7BA67",
"[  c #F6BB69",
"{  c #F8BC6A",
"}  c #F9BD6A",
"|  c #F8C073",
" . c #FBC272",
".. c #F9C274",
"X. c #FAC77D",
"o. c #B31D88",
"O. c #CD189C",
"+. c #A94990",
"@. c #898989",
"#. c #F6C786",
"$. c #F9CA86",
"%. c #F9CD8C",
"&. c #FBD49B",
"*. c #FAD49C",
"=. c #FCE4BB",
"-. c None",
/* pixels */
"-.-.-.-.-.-.-.-.-.-.-.-.-.-.-.-.-.-.-.-.-.",
"-.-.-.-.-.-.-.-.-.-.-.-.-.-.-.-.-.-.-.-.-.",
"-.-.-.-.-.-.-.-.-.-.-.-.-.-.-.-.-.-.-.-.-.",
"-.-.-.-.-.-.-.-.-.-.-.-.-.-.-.-.-.-.-.-.-.",
"-.-.-.-.-.-.-.-.-.-.-.-.-.-.-.-.-.-.-.-.-.",
"-.-.-.-.-.-.-.-.-.-.-.-.-.-.-.-.-.-.-.-.-.",
"-.-.-.-.-.-.-.-.-.-.-.-.-.-.-.-.-.-.-.-.-.",
"-.-.-.-.-.-.-.-.-.-.-.-.-.-.-.-.-.-.-.-.-.",
"-.-.-.-.-.-.-.-.-.-.-.-.-.-.-.-.-.-.-.-.-.",
"-.-.-.-.-.-.-.-.-.-.-.-.-.-.-.-.-.-.-.-.-.",
"-.-.-.-.-.-.-.-.-.-.-.-.-.-.-.-.-.-.-.-.-.",
"-.-.-.-.-.-.-.-.-.-.-.-.-.-.-.-.-.-.-.-.-.",
"-.-.-.-.-.-.-.-.-.-.-.-.-.-.-.-.-.-.-.-.-.",
"-.-.-.-.-.-.-.-.-.-.-.-.-.-.-.-.-.-.-.-.-.",
"-.-.-.-.-.-.-.-.-.-.-.-.-.-.-.-.-.-.-.-.-.",
"-.-.-.-.-.-.-.-.-.-.-.-.-.-.-.-.-.-.-.-.-.",
"-.-.-.-.-.-.-.-.-.-.-.-.-.o -.-.-.-.-.-.-.",
"-.-.-.-.-.-.@.-.-.-.-.-.-.-.-.-.-.-.-.-.-.",
"-.-.-.-.-.-.@.-.-.-.-.-.-.-.-.-.-.-.-.-.-.",
"-.-.-.-.-.-.-.-.-.-.-.-.-.-.-.-.-.-.-.-.-.",
"-.-.-.-.-.-.( X.&. .=.R I -.-.-.-.-.-.-.-.",
"-.-.-.-.-.' ~ E G z x j A = -.-.-.-.-.-.-.",
"-.-.-.-.-...U c S S S I A @ -.-.-.-.-.-.-.",
"-.-.-.-.-.^ W * -.-.-.  A + -.-.-.-.-.-.-.",
"-.-.-.-.-.%.W u u u u   A + -.-.-.-.-.-.-.",
"-.-.-.-.-._ H . # * ; ; A + -.-.-.-.-.-.-.",
"-.-.-.-.-.$.H h h A A z A + -.-.-.-.-.-.-.",
"-.-.-.-.-.*.] } Z j z d a & -.-.-.-.-.-.-.",
"-.-.-.-.-.-.R L ! A x s % -.-.-.-.-.-.-.-.",
"-.-.-.-.-.-.-.z P x f % -.-.-.-.-.-.-.-.-.",
"-.-.-.-.o.-.-.-.9 , O -.-.-.-.-.-.-.-.-.-.",
"-.-.-.-.-.-.-.-.y y - -.-.-.-.-.-.-.-.-.-.",
"-.-.-.-.-.-.-.o.i o.o.o.o.-.-.-.-.-.-.-.-.",
"-.-.-.-.-.-.-.-.n g < -.-.o.o.-.-.-.-.-.-.",
"-.-.-.-.-.-.-.-.N N 3 -.-.-.-.-.-.-.-.-.-.",
"-.-.-.-.-.-.-.-.` B $ O.-.-.-.-.-.-.-.-.-.",
"-.-.-.-.-.-.-.-./ C > -.X -.-.-.-.-.-.-.-.",
"-.-.-.-.-.-.-.-.#.l 2 -.-.-.-.-.-.-.-.-.-.",
"-.-.-.-.-.-.-.-.[ D : -.-.-.-.-.+.-.-.-.-.",
"-.-.-.-.-.-.-.-.{ D 1 -.-.-.-.-.-.-.-.-.-.",
"-.-.-.-.-.-.-.-.Q V r 7 j T -.-.-.-.-.-.-.",
"-.-.-.-.-.-.-.-.I J e 6 k -.-.-.-.-.-.-.-.",
"-.-.-.-.-.-.-.-.) K q 4 p -.-.-.-.-.-.-.-.",
"-.-.-.-.-.-.-.-.I F w 5 z Y -.-.-.-.-.-.-.",
"-.-.-.-.-.-.-.-.| F e 8 b -.-.-.-.-.-.-.-.",
"-.-.-.-.-.-.-.-.I m t 0 L L -.-.-.-.-.-.-.",
"-.-.-.-.-.-.-.-.M v t -.-.-.-.-.-.-.-.-.-."
};
