/* XPM */
static char * sprite_xpm[] = {
"50 50 63 1",
"  c #7F3617",
". c #8A3F13",
"X c #8A3F14",
"o c #87410D",
"O c #94490D",
"+ c #994C0D",
"@ c #9A4D0D",
"# c #984D0E",
"$ c #984D0F",
"% c #9A4D0E",
"& c #9B500F",
"* c #9F510E",
"= c #8F4310",
"- c #8B4014",
"; c #A0520E",
": c #A1520E",
"> c #A0520F",
", c #A2530E",
"< c #A3540F",
"1 c #A4550E",
"2 c #A15410",
"3 c #A25410",
"4 c #A15512",
"5 c #AE5C10",
"6 c #AF5D11",
"7 c #AF5D12",
"8 c #D06F15",
"9 c #D57F22",
"0 c #E7902D",
"q c #EA9029",
"w c #FF9522",
"e c #FF9823",
"r c #FF9C24",
"t c #FF9F2C",
"y c #FFA02F",
"u c #FFA132",
"i c #FFA333",
"p c #FFA234",
"a c #FFA739",
"s c #FFAA3F",
"d c #FFB444",
"f c #FFB24C",
"g c #FFB451",
"h c #FFBA5F",
"j c #FFC060",
"k c #FFC264",
"l c #FFC76D",
"z c #FFC773",
"x c #FFC971",
"c c #FFCA73",
"v c #FFCD78",
"b c #FFCC81",
"n c #FFD685",
"m c #FFD48F",
"M c #FFD88A",
"N c #FFD98C",
"B c #FFD896",
"V c #FFDC9E",
"C c #FFE3AA",
"Z c #FFE4A9",
"A c #FFE4AA",
"S c #FFE7AF",
"D c None",
"DDDDDDDDDDDDDDDDDDDDDDDDDDDDDDDDDDDDDDDDDDDDDDDDDD"
"DDDDDDDDDDDDDDDDDDDDDDDDDDDDDDDDDDDDDDDDDDDDDDDDDD"
"DDDDDDDDDDDDDDDDDDDDDDDDDDDDDDDDDDDDDDDDDDDDDDDDDD"
"DDDDDDDDDDDDDDDDDDDDDDDDDDDDDDDDDDDDDDDDDDDDDDDDDD"
"DDDDDDDDDDDDDDDDDDDDDDDDDDDDDDDDDDDDDDDDDDDDDDDDDD"
"DDDDDDDDDDDDDDDDDDDDDDDDDDDDDDDDDDDDDDDDDDDDDDDDDD"
"DDDDDDDDDDDDDDDDDDDDDDDDDDDDDDDDDDDDDDDDDDDDDDDDDD"
"DDDDDDDDDDDDDDDDDDDDDDDDDDDDDDDDDDDDDDDDDDDDDDDDDD"
"DDDDDDDDDDDDDDDDDDDDDDDDDDDDDDDDDDDDDDDDDDDDDDDDDD"
"DDDDDDDDDDDDDDDDDDDDDDDDDDDDDDDDDDDDDDDDDDDDDDDDDD"
"DDDDDDDDDDDDDDDDDDDDDDDDDDDDDDDDDDDDDDDDDDDDDDDDDD"
"DDDDDDDDDDDDDDDDDDDDDDAsas9*DDDDDDDDDDDDDDDDDDDDDD"
"DDDDDDDDDDDDDDDDDDDDDZp=DDp9ODDDDDDDDDDDDDDDDDDDDD"
"DDDDDDDDDDDDDDDDDDDDZp.DDDDp9*DDDDDDDDDDDDDDDDDDDD"
"DDDDDDDDDDDDDDDDDDDDp DDDDDDg-DDDDDDDDDDDDDDDDDDDD"
"DDDDDDDDDDDDDDDDDDDDjpXDDDDg9-DDDDDDDDDDDDDDDDDDDD"
"DDDDDDDDDDDDDDDDDDDDDgp-DDg9-DDDDDDDDDDDDDDDDDDDDD"
"DDDDDDDDDDDDDDDDDDDDDDggpp9-DDDDDDDDDDDDDDDDDDDDDD"
"DDDDDDDDDDDDDDDDDDDDDDDSpODDDDDDDDDDDDDDDDDDDDDDDD"
"DDDDDDDDDDDDDDDDDDDDDDDCp5DDDDDDDDDDDDDDDDDDDDDDDD"
"DDDDDDDDDDDDDDDDDDDDDDDc0,DDDDDDDDDDDDDDDDDDDDDDDD"
"DDDDDDDDDDDDDDDDDDDDDDDB0:DDDDDDDDDDDDDDDDDDDDDDDD"
"DDDDDDDDDDDDDDDDDDDDDDDv0;DDDDDDDDDDDDDDDDDDDDDDDD"
"DDDDDDDDDDDDDDDDDDDDDDDbp<DDDDDDDDDDDDDDDDDDDDDDDD"
"DDDDDDDDDDDDDDDDDDDDDDDzp6DDDDDDDDDDDDDDDDDDDDDDDD"
"DDDDDDDDDDDDDDDDDDDDDDDfp>DDDDDDDDDDDDDDDDDDDDDDDD"
"DDDDDDDDDDDDDDDDDDDDDDDkp%DDDDDDDDDDDDDDDDDDDDDDDD"
"DDDDDDDDDDDDDDDDDDDDDDDMp+DDDDDDDDDDDDDDDDDDDDDDDD"
"DDDDDDDDDDDDDDDDDDDDDDDhp1DDDDDDDDDDDDDDDDDDDDDDDD"
"DDDDDDDDDDDDDDDDDDDDDDDmp@DDDDDDDDDDDDDDDDDDDDDDDD"
"DDDDDDDDDDDDDDDDDDDDDDDVp@DDDDDDDDDDDDDDDDDDDDDDDD"
"DDDDDDDDDDDDDDDDDDDDDDDnp;DDDDDDDDDDDDDDDDDDDDDDDD"
"DDDDDDDDDDDDDDDDDDDDDDDly28quDDDDDDDDDDDDDDDDDDDDD"
"DDDDDDDDDDDDDDDDDDDDDDDNp38$DDDDDDDDDDDDDDDDDDDDDD"
"DDDDDDDDDDDDDDDDDDDDDDDnp78DDDDDDDDDDDDDDDDDDDDDDD"
"DDDDDDDDDDDDDDDDDDDDDDDdt&8wrDDDDDDDDDDDDDDDDDDDDD"
"DDDDDDDDDDDDDDDDDDDDDDDxp#8$DDDDDDDDDDDDDDDDDDDDDD"
"DDDDDDDDDDDDDDDDDDDDDDDni48erDDDDDDDDDDDDDDDDDDDDD"
"DDDDDDDDDDDDDDDDDDDDDDDfpoDDDDDDDDDDDDDDDDDDDDDDDD"
"DDDDDDDDDDDDDDDDDDDDDDDDDDDDDDDDDDDDDDDDDDDDDDDDDD"
"DDDDDDDDDDDDDDDDDDDDDDDDDDDDDDDDDDDDDDDDDDDDDDDDDD"
"DDDDDDDDDDDDDDDDDDDDDDDDDDDDDDDDDDDDDDDDDDDDDDDDDD"
"DDDDDDDDDDDDDDDDDDDDDDDDDDDDDDDDDDDDDDDDDDDDDDDDDD"
"DDDDDDDDDDDDDDDDDDDDDDDDDDDDDDDDDDDDDDDDDDDDDDDDDD"
"DDDDDDDDDDDDDDDDDDDDDDDDDDDDDDDDDDDDDDDDDDDDDDDDDD"
"DDDDDDDDDDDDDDDDDDDDDDDDDDDDDDDDDDDDDDDDDDDDDDDDDD"
"DDDDDDDDDDDDDDDDDDDDDDDDDDDDDDDDDDDDDDDDDDDDDDDDDD"
"DDDDDDDDDDDDDDDDDDDDDDDDDDDDDDDDDDDDDDDDDDDDDDDDDD"
"DDDDDDDDDDDDDDDDDDDDDDDDDDDDDDDDDDDDDDDDDDDDDDDDDD"
"DDDDDDDDDDDDDDDDDDDDDDDDDDDDDDDDDDDDDDDDDDDDDDDDDD"
};