/* XPM */
static char *result[] = {
/* columns rows colors chars-per-pixel */
"21 47 102 2 ",
"   c #743612",
".  c #7F3B14",
"X  c #753C63",
"o  c #823D12",
"O  c #843E14",
"+  c #853F14",
"@  c #994E0F",
"#  c #864012",
"$  c #8D4415",
"%  c #914912",
"&  c #984D12",
"*  c #9C5110",
"=  c #9D5210",
"-  c #9D5212",
";  c #A05513",
":  c #A25612",
">  c #A35712",
",  c #A35713",
"<  c #A25714",
"1  c #A45814",
"2  c #A45815",
"3  c #A65A14",
"4  c #AA5D16",
"5  c #AB5E16",
"6  c #AE5F14",
"7  c #B16216",
"8  c #B9691A",
"9  c #B96A1A",
"0  c #BA6A1A",
"q  c #BF6E1B",
"w  c #C06F1B",
"e  c #993B42",
"r  c #DE851C",
"t  c #FD8F03",
"y  c #F98F07",
"u  c #FD9308",
"i  c #ED8D14",
"p  c #EE901C",
"a  c #F79617",
"s  c #FB9511",
"d  c #F49419",
"f  c #F0921E",
"g  c #F1941F",
"h  c #F99718",
"j  c #F99819",
"k  c #F8991F",
"l  c #DB8825",
"z  c #E08A23",
"x  c #E18C26",
"c  c #E08B28",
"v  c #E49029",
"b  c #EA942C",
"n  c #EB952C",
"m  c #F29620",
"M  c #F29622",
"N  c #F19624",
"B  c #F49822",
"V  c #F69A22",
"C  c #F79B23",
"Z  c #F19827",
"A  c #F49B27",
"S  c #F99D24",
"D  c #F39B28",
"F  c #F39A29",
"G  c #F39B29",
"H  c #F49C29",
"J  c #F49C2A",
"K  c #F29E30",
"L  c #F9A02B",
"P  c #F7A232",
"I  c #F6A233",
"U  c #F6A73E",
"Y  c #F8A73C",
"T  c #F6A841",
"R  c #F7A942",
"E  c #F8AB45",
"W  c #F6B050",
"Q  c #F7B050",
"!  c #F7B055",
"~  c #F7B254",
"^  c #F6B255",
"/  c #F7B457",
"(  c #F6B764",
")  c #F7B962",
"_  c #F7BA67",
"`  c #F6BB69",
"'  c #F8BC6A",
"]  c #F9BD6A",
"[  c #F8C073",
"{  c #FBC272",
"}  c #F9C274",
"|  c #FAC77D",
" . c #B31D88",
".. c #CD189C",
"X. c #898989",
"o. c #F6C786",
"O. c #F9CA86",
"+. c #F9CD8C",
"@. c #FBD49B",
"#. c #FAD49C",
"$. c #FCE4BB",
"%. c None",
/* pixels */
"%.%.%.%.%.%.%.%.%.%.%.%.%.%.%.%.%.%.%.%.%.",
"%.%.%.%.%.%.%.%.%.%.%.%.%.%.%.%.%.%.%.%.%.",
"%.%.%.%.%.%.%.%.%.%.%.%.%.%.%.%.%.%.%.%.%.",
"%.%.%.%.%.%.%.%.%.%.%.%.%.%.%.%.%.%.%.%.%.",
"%.%.%.%.%.%.%.%.%.%.%.%.%.%.%.%.%.%.%.%.%.",
"%.%.%.%.%.%.%.%.%.%.%.%.%.%.%.%.%.%.%.%.%.",
"%.%.%.%.%.%.%.%.%.%.%.%.%.%.%.%.%.%.%.%.%.",
"%.%.%.%.%.%.%.%.%.%.%.%.%.%.%.%.%.%.%.%.%.",
"%.%.%.%.%.%.%.%.%.%.%.%.%.%.%.%.%.%.%.%.%.",
"%.%.%.%.%.%.%.%.%.%.%.%.%.%.%.%.%.%.%.%.%.",
"%.%.%.%.%.%.%.%.%.%.%.%.%.%.%.%.%.%.%.%.%.",
"%.%.%.%.%.%.%.%.%.%.%.%.%.%.%.%.%.%.%.%.%.",
"%.%.%.%.%.%.%.%.%.%.%.%.%.%.%.%.%.%.%.%.%.",
"%.%.%.%.%.%.%.%.%.%.%.%.%.%.%.%.%.%.%.%.%.",
"%.%.%.%.%.%.%.%.%.%.%.%.%.%.%.%.%.%.%.%.%.",
"%.%.%.%.%.%.%.%.%.%.%.%.%.%.%.%.%.%.%.%.%.",
"%.%.%.%.%.%.%.%.X.%.%.%.%.%.%.%.%.%.%.%.%.",
"%.%.%.%.%.%.%.%.X.%.%.%.%.%.%.%.%.%.%.%.%.",
"%.%.%.%.%.%.%.%.%.%.%.%.%.%.%.%.%.%.%.%.%.",
"%.%.%.%.%.%.%.%.X.%.%.%.%.%.%.%.%.%.%.%.%.",
"%.%.%.%.%.%.~ | @.{ $.U K %.%.%.%.%.%.%.%.",
"%.%.%.%.%.) W Y S h j s V % %.%.%.%.%.%.%.",
"%.%.%.%.%.} L k C C C K V O %.%.%.%.%.%.%.",
"%.%.%.%.%.Q T $ %.%.%.  V o %.%.%.%.%.%.%.",
"%.%.%.%.%.+.T $  . .%.  V o %.%.%.%.%.%.%.",
"%.%.%.%.%./ D . + $  . .V o %.%.%.%.%.%.%.",
"%.%.%.%.%.O.D a a V V h  .o %.%.%.%.%.%.%.",
"%.%.%.%.%.#._ ] B s h u t  .%.%.%.%.%.%.%.",
"%.%.%.%.%.%.U H E V j y # %. .%.%.%.%.%.%.",
"%.%.%.%.%.%.%.h J j i # %.%. .%.%.%.%.%.%.",
"%.%.%.%.%.%.%.%.6 - e e %.%.%.%.%.%.%.%.%.",
"%.%.%.%.%.%.%.%.e e & %.%.%.%.%.%.%.%.%.%.",
"%.%.%.%.%.%.%.%.g x 3 %.%. .%.%.%.%.%.%.%.",
"%.%.%.%.%.%.%.%.c p ; %.%.%.%.%.%.%.%.%.%.",
"%.%.%.%.%.%.%.%.n n , %.%.%.%.%.%.%.%.%.%.",
"%.%.%.%.%.......( m @ %.%.%.%.%.%.%.%.%.%.",
"%.%.%.%.%.%.%.%.! N = %.%.%.%.%.%.%.%.%.%.",
"%.%.%.%.%.%.%.%.o.f > %.%.%.%.%.%.%.%.%.%.",
"%.%.%.%.%.%.%.%.` Z * %.%.%.%.%.%.%.%.%.%.",
"%.%.%.%.%.%.%.%.' Z : %.%.%.%.%.%.%.%.%.%.",
"%.%.%.%.%.%.%.%.R M q 4 s I %.%.%.%.%.%.%.",
"%.%.%.%.%.%.%.%.K F 0 2 d %.%.%.%.%.%.%.%.",
"%.%.%.%.%.%.%.%.^ G 8 < r %.%.%.%.%.%.%.%.",
"%.%.%.%.%.%.%.%.K A 9 1 h P %.%.%.%.%.%.%.",
"%.%.%.%.%.%.%.%.[ A 0 5 z %.%.%.%.%.%.%.%.",
"%.%.%.%.%.%.%.%.K v w 7 H H %.%.%.%.%.%.%.",
"%.%.%.%.%.%.X %.b l w %.%.%.%.%.%.%.%.%.%."
};
