/* XPM */
static char *result[] = {
/* columns rows colors chars-per-pixel */
"21 47 106 2 ",
"   c #743612",
".  c #7F3B14",
"X  c #753C63",
"o  c #823C11",
"O  c #823D12",
"+  c #843E14",
"@  c #853F14",
"#  c #994E0F",
"$  c #864012",
"%  c #8D4415",
"&  c #914912",
"*  c #984D12",
"=  c #9C4E16",
"-  c #9C5110",
";  c #9D5210",
":  c #9D5212",
">  c #A05513",
",  c #A25612",
"<  c #A35712",
"1  c #A35713",
"2  c #A25714",
"3  c #A45814",
"4  c #A45815",
"5  c #A65A14",
"6  c #AA5D16",
"7  c #AB5E16",
"8  c #AE5F14",
"9  c #B16216",
"0  c #B9691A",
"q  c #B96A1A",
"w  c #BA6A1A",
"e  c #BF6E1B",
"r  c #C06F1B",
"t  c #C97214",
"y  c #993B42",
"u  c #DE851C",
"i  c #FD8F03",
"p  c #F98F07",
"a  c #FD9308",
"s  c #ED8D14",
"d  c #EE901C",
"f  c #F79617",
"g  c #FB9511",
"h  c #F49419",
"j  c #F0921E",
"k  c #F1941F",
"l  c #F99718",
"z  c #F99819",
"x  c #F8991F",
"c  c #DB8825",
"v  c #E08A23",
"b  c #E18C26",
"n  c #E08B28",
"m  c #E49029",
"M  c #EA942C",
"N  c #EB952C",
"B  c #F29620",
"V  c #F29622",
"C  c #F19624",
"Z  c #F49822",
"A  c #F69A22",
"S  c #F79B23",
"D  c #F19827",
"F  c #F49B27",
"G  c #F99D24",
"H  c #F39B28",
"J  c #F39A29",
"K  c #F39B29",
"L  c #F49C29",
"P  c #F49C2A",
"I  c #F29E30",
"U  c #F9A02B",
"Y  c #F7A232",
"T  c #F6A233",
"R  c #F6A73E",
"E  c #F8A73C",
"W  c #F6A841",
"Q  c #F7A942",
"!  c #F8AB45",
"~  c #F6B050",
"^  c #F7B050",
"/  c #F7B055",
"(  c #F7B254",
")  c #F6B255",
"_  c #F7B457",
"`  c #F6B764",
"'  c #F7B962",
"]  c #F7BA67",
"[  c #F6BB69",
"{  c #F8BC6A",
"}  c #F9BD6A",
"|  c #F8C073",
" . c #FBC272",
".. c #F9C274",
"X. c #FAC77D",
"o. c #B31D88",
"O. c #CD189C",
"+. c #A94990",
"@. c #898989",
"#. c #F6C786",
"$. c #F9CA86",
"%. c #F9CD8C",
"&. c #FBD49B",
"*. c #FAD49C",
"=. c #FCE4BB",
"-. c None",
/* pixels */
"-.-.-.-.-.-.-.-.-.-.-.-.-.-.-.-.-.-.-.-.-.",
"-.-.-.-.-.-.-.-.-.-.-.-.-.-.-.-.-.-.-.-.-.",
"-.-.-.-.-.-.-.-.-.-.-.-.-.-.-.-.-.-.-.-.-.",
"-.-.-.-.-.-.-.-.-.-.-.-.-.-.-.-.-.-.-.-.-.",
"-.-.-.-.-.-.-.-.-.-.-.-.-.-.-.-.-.-.-.-.-.",
"-.-.-.-.-.-.-.-.-.-.-.-.-.-.-.-.-.-.-.-.-.",
"-.-.-.-.-.-.-.-.-.-.-.-.-.-.-.-.-.-.-.-.-.",
"-.-.-.-.-.-.-.-.-.-.-.-.-.-.-.-.-.-.-.-.-.",
"-.-.-.-.-.-.-.-.-.-.-.-.-.-.-.-.-.-.-.-.-.",
"-.-.-.-.-.-.-.-.-.-.-.-.-.-.-.-.-.-.-.-.-.",
"-.-.-.-.-.-.-.-.-.-.-.-.-.-.-.-.-.-.-.-.-.",
"-.-.-.-.-.-.-.-.-.-.-.-.-.-.-.-.-.-.-.-.-.",
"-.-.-.-.-.-.-.-.-.-.-.-.-.-.-.-.-.-.-.-.-.",
"-.-.-.-.-.-.-.-.-.-.-.-.-.-.-.-.-.-.-.-.-.",
"-.-.-.-.-.-.-.-.-.-.-.-.-.-.-.-.-.-.-.-.-.",
"-.-.-.-.-.-.-.-.-.-.-.-.-.-.-.-.-.-.-.-.-.",
"-.-.-.-.-.-.-.-.-.-.-.-.-.-.-.-.-.-.-.-.-.",
"-.-.-.-.-.-.-.-.-.-.-.-.-.-.-.-.-.-.-.-.-.",
"-.-.-.-.-.-.-.-.@.-.-.-.-.-.-.-.-.-.-.-.-.",
"-.-.-.-.-.-.-.-.@.-.-.-.-.-.-.-.-.-.-.-.-.",
"-.-.-.-.-.-.( X.&. .=.R I -.-.-.-.-.-.-.-.",
"-.-.-.-.-.' ~ E G l z g A & -.-.-.-.-.-.-.",
"-.-.-.-.-...U x S S S I A + -.-.-.-.-.-.-.",
"-.-.-.-.-.^ W % -.-.-.  A O -.-.-.-.-.-.-.",
"-.-.-.-.-.%.W % -.-.-.  A O -.-.-.-.-.-.-.",
"-.-.-.-.-._ H . @ % = = A O -.-.-.-.-.-.-.",
"-.-.-.-.-.$.H f f A A l o.O -.-.-.-.-.-.-.",
"-.-.-.-.-.*.] } Z g l a i o.-.-.-.-.-.-.-.",
"-.-.-.-.-.-.R L ! A z p $ -.o.-.-.-.-.-.-.",
"-.-.-.-.-.-.-.l P z s $ -.-.o.-.-.-.-.-.-.",
"-.-.-.-.-.y -.-.8 : o -.-.-.o.-.-.-.-.-.-.",
"-.-.-.-.-.-.y y y t * -.-.o.-.-.-.-.-.-.-.",
"-.-.-.-.-.-.-.-.k b 5 o.o.-.-.+.-.-.-.-.-.",
"-.-.-.-.-.-.-.-.n d > -.-.-.-.-.-.-.-.-.-.",
"-.-.-.-.-.-.-.-.N N 1 O.O.-.-.-.-.-.-.-.-.",
"-.-.-.-.-.-.-.-.` B # -.-.-.-.-.-.-.-.-.-.",
"-.-.-.-.-.-.X -./ C ; -.-.-.-.-.-.-.-.-.-.",
"-.-.-.-.-.-.-.-.#.j < -.-.-.-.-.-.-.-.-.-.",
"-.-.-.-.-.-.-.-.[ D - -.-.-.-.-.-.-.-.-.-.",
"-.-.-.-.-.-.-.-.{ D , -.-.-.-.-.-.-.-.-.-.",
"-.-.-.-.-.-.-.-.Q V e 6 g T -.-.-.-.-.-.-.",
"-.-.-.-.-.-.-.-.I J w 4 h -.-.-.-.-.-.-.-.",
"-.-.-.-.-.-.-.-.) K 0 2 u -.-.-.-.-.-.-.-.",
"-.-.-.-.-.-.-.-.I F q 3 l Y -.-.-.-.-.-.-.",
"-.-.-.-.-.-.-.-.| F w 7 v -.-.-.-.-.-.-.-.",
"-.-.-.-.-.-.-.-.I m r 9 L L -.-.-.-.-.-.-.",
"-.-.-.-.-.-.-.-.M c r -.-.-.-.-.-.-.-.-.-."
};
