/* XPM */
static char *result[] = {
/* columns rows colors chars-per-pixel */
"21 47 104 2 ",
"   c #743612",
".  c #7F3B14",
"X  c #753C63",
"o  c #823C11",
"O  c #823D12",
"+  c #843E14",
"@  c #853F14",
"#  c #994E0F",
"$  c #864012",
"%  c #8D4415",
"&  c #914912",
"*  c #984D12",
"=  c #9C5110",
"-  c #9D5210",
";  c #9D5212",
":  c #A05513",
">  c #A25612",
",  c #A35712",
"<  c #A35713",
"1  c #A25714",
"2  c #A45814",
"3  c #A45815",
"4  c #A65A14",
"5  c #AA5D16",
"6  c #AB5E16",
"7  c #AE5F14",
"8  c #B16216",
"9  c #B9691A",
"0  c #B96A1A",
"q  c #BA6A1A",
"w  c #BF6E1B",
"e  c #C06F1B",
"r  c #993B42",
"t  c #DE851C",
"y  c #FD8F03",
"u  c #F98F07",
"i  c #FD9308",
"p  c #ED8D14",
"a  c #EE901C",
"s  c #F79617",
"d  c #FB9511",
"f  c #F49419",
"g  c #F0921E",
"h  c #F1941F",
"j  c #F99718",
"k  c #F99819",
"l  c #F8991F",
"z  c #DB8825",
"x  c #E08A23",
"c  c #E18C26",
"v  c #E08B28",
"b  c #E49029",
"n  c #EA942C",
"m  c #EB952C",
"M  c #F29620",
"N  c #F29622",
"B  c #F19624",
"V  c #F49822",
"C  c #F69A22",
"Z  c #F79B23",
"A  c #F19827",
"S  c #F49B27",
"D  c #F99D24",
"F  c #F39B28",
"G  c #F39A29",
"H  c #F39B29",
"J  c #F49C29",
"K  c #F49C2A",
"L  c #F29E30",
"P  c #F9A02B",
"I  c #F7A232",
"U  c #F6A233",
"Y  c #F6A73E",
"T  c #F8A73C",
"R  c #F6A841",
"E  c #F7A942",
"W  c #F8AB45",
"Q  c #F6B050",
"!  c #F7B050",
"~  c #F7B055",
"^  c #F7B254",
"/  c #F6B255",
"(  c #F7B457",
")  c #F6B764",
"_  c #F7B962",
"`  c #F7BA67",
"'  c #F6BB69",
"]  c #F8BC6A",
"[  c #F9BD6A",
"{  c #F8C073",
"}  c #FBC272",
"|  c #F9C274",
" . c #FAC77D",
".. c #B31D88",
"X. c #CD189C",
"o. c #A94990",
"O. c #898989",
"+. c #F6C786",
"@. c #F9CA86",
"#. c #F9CD8C",
"$. c #FBD49B",
"%. c #FAD49C",
"&. c #FCE4BB",
"*. c None",
/* pixels */
"*.*.*.*.*.*.*.*.*.*.*.*.*.*.*.*.*.*.*.*.*.",
"*.*.*.*.*.*.*.*.*.*.*.*.*.*.*.*.*.*.*.*.*.",
"*.*.*.*.*.*.*.*.*.*.*.*.*.*.*.*.*.*.*.*.*.",
"*.*.*.*.*.*.*.*.*.*.*.*.*.*.*.*.*.*.*.*.*.",
"*.*.*.*.*.*.*.*.*.*.*.*.*.*.*.*.*.*.*.*.*.",
"*.*.*.*.*.*.*.*.*.*.*.*.*.*.*.*.*.*.*.*.*.",
"*.*.*.*.*.*.*.*.*.*.*.*.*.*.*.*.*.*.*.*.*.",
"*.*.*.*.*.*.*.*.*.*.*.*.*.*.*.*.*.*.*.*.*.",
"*.*.*.*.*.*.*.*.*.*.*.*.*.*.*.*.*.*.*.*.*.",
"*.*.*.*.*.*.*.*.*.*.*.*.*.*.*.*.*.*.*.*.*.",
"*.*.*.*.*.*.*.*.*.*.*.*.*.*.*.*.*.*.*.*.*.",
"*.*.*.*.*.*.*.*.*.*.*.*.*.*.*.*.*.*.*.*.*.",
"*.*.*.*.*.*.*.*.*.*.*.*.*.*.*.*.*.*.*.*.*.",
"*.*.*.*.*.*.*.*.*.*.*.*.*.*.*.*.*.*.*.*.*.",
"*.*.*.*.*.*.*.*.*.*.*.*.*.*.*.*.*.*.*.*.*.",
"*.*.*.*.*.*.*.*.*.*.*.*.*.*.*.*.*.*.*.*.*.",
"*.*.*.*.*.*.*.*.*.*.*.*.*.*.*.*.*.*.*.*.*.",
"*.*.*.*.*.*.*.*.O.*.*.*.*.*.*.*.*.*.*.*.*.",
"*.*.*.*.*.*.*.*.O.*.*.*.*.*.*.*.*.*.*.*.*.",
"*.*.*.*.*.*.*.*.*.*.*.*.*.*.*.*.*.*.*.*.*.",
"*.*.*.*.*.*.^  .$.} &.Y L *.*.*.*.*.*.*.*.",
"*.*.*.*.*._ Q T D j k d C & *.*.*.*.*.*.*.",
"*.*.*.*.*.| P l Z Z Z L C + *.*.*.*.*.*.*.",
"*.*.*.*.*.! R % *.*.*.  C O *.*.*.*.*.*.*.",
"*.*.*.*.*.#.R % *.*.*.  C O *.*.*.*.*.*.*.",
"*.*.*.*.*.( F . @ % ....C O *.*.*.*.*.*.*.",
"*.*.*.*.*.@.F s s C C j ..O *.*.*.*.*.*.*.",
"*.*.*.*.*.%.` [ V d j i y ..*.*.*.*.*.*.*.",
"*.*.*.*.*.*.Y J W C k u $ *...*.*.*.*.*.*.",
"*.*.*.*.*.*.*.j K k p $ *.*...*.*.*.*.*.*.",
"*.*.*.*.*.*.*.*.7 ; o *.*.*...*.*.*.*.*.*.",
"*.*.*.*.*.*.r r r r * *.*...*.*.*.*.*.*.*.",
"*.*.*.*.*.*.*.*.h c 4 *.*.*.*.*.o.*.*.*.*.",
"*.*.*.*.*.*.*.*.v a : ..*.*.*.*.*.*.*.*.*.",
"*.*.*.*.*.*.*.*.m m < *.*.*.*.*.*.*.*.*.*.",
"*.*.*.*.*.*.*.X.) M # *.*.*.*.*.*.*.*.*.*.",
"*.*.*.*.*.*.*.*.~ B - *.*.*.*.*.*.*.*.*.*.",
"*.*.*.*.*.*.*.*.+.g , *.*.*.*.*.*.*.*.*.*.",
"*.*.*.*.*.*.*.*.' A = *.*.*.*.*.*.*.*.*.*.",
"*.*.*.*.*.*.*.*.] A > *.*.*.*.*.*.*.*.*.*.",
"*.*.*.*.*.*.*.*.E N w 5 d U *.*.*.*.*.*.*.",
"*.*.*.*.*.*.X *.L G q 3 f *.*.*.*.*.*.*.*.",
"*.*.*.*.*.*.*.*./ H 9 1 t *.*.*.*.*.*.*.*.",
"*.*.*.*.*.*.*.*.L S 0 2 j I *.*.*.*.*.*.*.",
"*.*.*.*.*.*.*.*.{ S q 6 x *.*.*.*.*.*.*.*.",
"*.*.*.*.*.*.*.*.L b e 8 J J *.*.*.*.*.*.*.",
"*.*.*.*.*.*.*.*.n z e *.*.*.*.*.*.*.*.*.*."
};
