/* XPM */
static char *exit[] = {
/* width height num_colors chars_per_pixel */
"50 50 2 1",
/* black */
"B c #000000",
/* white */
"W c #FFFFFF",
/* pixels */
"WWWWWBBBBBWWWWWBBBBBWWWWWBBBBBWWWWWBBBBBWWWWWBBBBB",
"WWWWWBBBBBWWWWWBBBBBWWWWWBBBBBWWWWWBBBBBWWWWWBBBBB",
"WWWWWBBBBBWWWWWBBBBBWWWWWBBBBBWWWWWBBBBBWWWWWBBBBB",
"WWWWWBBBBBWWWWWBBBBBWWWWWBBBBBWWWWWBBBBBWWWWWBBBBB",
"WWWWWBBBBBWWWWWBBBBBWWWWWBBBBBWWWWWBBBBBWWWWWBBBBB",
"BBBBBWWWWWBBBBBWWWWWBBBBBWWWWWBBBBBWWWWWBBBBBWWWWW",
"BBBBBWWWWWBBBBBWWWWWBBBBBWWWWWBBBBBWWWWWBBBBBWWWWW",
"BBBBBWWWWWBBBBBWWWWWBBBBBWWWWWBBBBBWWWWWBBBBBWWWWW",
"BBBBBWWWWWBBBBBWWWWWBBBBBWWWWWBBBBBWWWWWBBBBBWWWWW",
"BBBBBWWWWWBBBBBWWWWWBBBBBWWWWWBBBBBWWWWWBBBBBWWWWW",
"WWWWWBBBBBWWWWWBBBBBWWWWWBBBBBWWWWWBBBBBWWWWWBBBBB",
"WWWWWBBBBBWWWWWBBBBBWWWWWBBBBBWWWWWBBBBBWWWWWBBBBB",
"WWWWWBBBBBWWWWWBBBBBWWWWWBBBBBWWWWWBBBBBWWWWWBBBBB",
"WWWWWBBBBBWWWWWBBBBBWWWWWBBBBBWWWWWBBBBBWWWWWBBBBB",
"WWWWWBBBBBWWWWWBBBBBWWWWWBBBBBWWWWWBBBBBWWWWWBBBBB",
"BBBBBWWWWWBBBBBWWWWWBBBBBWWWWWBBBBBWWWWWBBBBBWWWWW",
"BBBBBWWWWWBBBBBWWWWWBBBBBWWWWWBBBBBWWWWWBBBBBWWWWW",
"BBBBBWWWWWBBBBBWWWWWBBBBBWWWWWBBBBBWWWWWBBBBBWWWWW",
"BBBBBWWWWWBBBBBWWWWWBBBBBWWWWWBBBBBWWWWWBBBBBWWWWW",
"BBBBBWWWWWBBBBBWWWWWBBBBBWWWWWBBBBBWWWWWBBBBBWWWWW",
"WWWWWBBBBBWWWWWBBBBBWWWWWBBBBBWWWWWBBBBBWWWWWBBBBB",
"WWWWWBBBBBWWWWWBBBBBWWWWWBBBBBWWWWWBBBBBWWWWWBBBBB",
"WWWWWBBBBBWWWWWBBBBBWWWWWBBBBBWWWWWBBBBBWWWWWBBBBB",
"WWWWWBBBBBWWWWWBBBBBWWWWWBBBBBWWWWWBBBBBWWWWWBBBBB",
"WWWWWBBBBBWWWWWBBBBBWWWWWBBBBBWWWWWBBBBBWWWWWBBBBB",
"BBBBBWWWWWBBBBBWWWWWBBBBBWWWWWBBBBBWWWWWBBBBBWWWWW",
"BBBBBWWWWWBBBBBWWWWWBBBBBWWWWWBBBBBWWWWWBBBBBWWWWW",
"BBBBBWWWWWBBBBBWWWWWBBBBBWWWWWBBBBBWWWWWBBBBBWWWWW",
"BBBBBWWWWWBBBBBWWWWWBBBBBWWWWWBBBBBWWWWWBBBBBWWWWW",
"BBBBBWWWWWBBBBBWWWWWBBBBBWWWWWBBBBBWWWWWBBBBBWWWWW",
"WWWWWBBBBBWWWWWBBBBBWWWWWBBBBBWWWWWBBBBBWWWWWBBBBB",
"WWWWWBBBBBWWWWWBBBBBWWWWWBBBBBWWWWWBBBBBWWWWWBBBBB",
"WWWWWBBBBBWWWWWBBBBBWWWWWBBBBBWWWWWBBBBBWWWWWBBBBB",
"WWWWWBBBBBWWWWWBBBBBWWWWWBBBBBWWWWWBBBBBWWWWWBBBBB",
"WWWWWBBBBBWWWWWBBBBBWWWWWBBBBBWWWWWBBBBBWWWWWBBBBB",
"BBBBBWWWWWBBBBBWWWWWBBBBBWWWWWBBBBBWWWWWBBBBBWWWWW",
"BBBBBWWWWWBBBBBWWWWWBBBBBWWWWWBBBBBWWWWWBBBBBWWWWW",
"BBBBBWWWWWBBBBBWWWWWBBBBBWWWWWBBBBBWWWWWBBBBBWWWWW",
"BBBBBWWWWWBBBBBWWWWWBBBBBWWWWWBBBBBWWWWWBBBBBWWWWW",
"BBBBBWWWWWBBBBBWWWWWBBBBBWWWWWBBBBBWWWWWBBBBBWWWWW",
"WWWWWBBBBBWWWWWBBBBBWWWWWBBBBBWWWWWBBBBBWWWWWBBBBB",
"WWWWWBBBBBWWWWWBBBBBWWWWWBBBBBWWWWWBBBBBWWWWWBBBBB",
"WWWWWBBBBBWWWWWBBBBBWWWWWBBBBBWWWWWBBBBBWWWWWBBBBB",
"WWWWWBBBBBWWWWWBBBBBWWWWWBBBBBWWWWWBBBBBWWWWWBBBBB",
"WWWWWBBBBBWWWWWBBBBBWWWWWBBBBBWWWWWBBBBBWWWWWBBBBB",
"BBBBBWWWWWBBBBBWWWWWBBBBBWWWWWBBBBBWWWWWBBBBBWWWWW",
"BBBBBWWWWWBBBBBWWWWWBBBBBWWWWWBBBBBWWWWWBBBBBWWWWW",
"BBBBBWWWWWBBBBBWWWWWBBBBBWWWWWBBBBBWWWWWBBBBBWWWWW",
"BBBBBWWWWWBBBBBWWWWWBBBBBWWWWWBBBBBWWWWWBBBBBWWWWW",
"BBBBBWWWWWBBBBBWWWWWBBBBBWWWWWBBBBBWWWWWBBBBBWWWWW",
};
