/* XPM */
static char * stone_floor_xpm[] = {
"50 50 3 1",
"a c #606060",
"b c #808080",
"c c #404040",
/* pixels */
"acaaaaacacaacaaaaaacaaaabaccaaaaabaaaaaaacaacaaaaa"
"aaabaaaaaabaaaaaacaaabaaaabaaaaaaaaabaccaaaacababa"
"caaaaaaaabaaaabaaaaaaaaacacbaaacabcacaaaaaaaaaaaaa"
"baaaaaaaaacaabacaaaabaaaaacaaaaabcaaaaaaaaabaaacba"
"bbaaaaacabaaaabbaaaabaaacaaaabcaaaaaaaaaaaabaaaaaa"
"aacabbcaabaaaaaaabacaaabaaaaaaaaaaabacaacaaaaaacca"
"baaaaaaaaaaaaaaaaaababaacaabaaaaaaaaaaaaaacaaabaaa"
"babababaaaaaaaaaaacbaaaaacaaaaaaaaaaaababaaacaaaaa"
"aaabaacaaaaaaaacaaacaaaaaaacaaaaabacaaaaababaaaaaa"
"aaaaaaaaaacaaaaaaaacaaaaabaaaaacaaabaaaaaaacaaaaaa"
"acaacaaacaaaaaaaaccabaaaaabacaaaaaaaaaaaabacaabaac"
"aaaaaaabaaaaaaaaabaaaaabaaaaaaaaacaaaaacaaaaaaaacb"
"caaaaaaacaaaaaaaaaaaaaaaaaaaaabaaaaaacaabaaaaaaaaa"
"acbaaacacaaabaaaaaaaaabaaaabaaaaaccaaaaaaaabaaabaa"
"abacaaaaaaaabaaccaaacbaabbaacaaabaaaacaaaaaaabaaaa"
"abaabaaaaaaaaaabaaabaaaaacbbaaaaaaaabaaabaaaaaabaa"
"aaabaaaaaaaaaaaaacaaaaaabacaaaaaaaaaaaabaaaaaaaaaa"
"accabbaacaaaabcaaaaaaaacaaabaaaacabaaaaaaaaaaaaaaa"
"babaaaaacaabaaaaaaaaaaabaaaaacaaaaababaaaaaaaababa"
"abbaaacaaaaaabaacaabacabaaabaacaaaaabaaaacaabcaaba"
"caabaaaaaaaaacaaaacaaaaaabcaaaaaaccaaaacaaaaaaaabc"
"aaaabcaaaabccacaaaabaaacaaaaaaaaaaacaaaabcaccaaaaa"
"aaaaaaabaaaaaaaaaaaaabaaacbaaaaaacaaaaacaaaaaaaacc"
"aaaaaaaaaaaaaaacaacaaaaacaaaaaaacaccbaaaaaacaaaabc"
"aaaaaaaaaaaabaaaaaaaaaaaaaaaabaaaaaacaaacaaacacaaa"
"aaaaaaaaaaacaaaaaaaaaaaaaaaaaaccaaaabaaaaabaaabaaa"
"aaaaaaaaaaaabaaacaaaaacaaaaaaaaaaaaaaaaaaaaaaabbaa"
"aabaaaaaaaaaaaaabaabaaaccaabacbaaaaaaaaaaccaaaaaaa"
"acaaaabacaaaaaaaacbcaabaaaabacaaaaaaacaaaaaaaacaaa"
"cacbabaaaaaaaaaaaaaabaabaaacaaaacaaaaaacaababbcaaa"
"abaaaccaaaaaabaaaaaaaaaaaaaaababaaaaaacaaaacaaaaba"
"aaaaaacaaaaacabaaaacbaaaaaaaababcaaaaaabaaaaaaaaaa"
"baaaaaaaccaaaaaaaaabaaaaccaaaaaaaabaaaaaaacaaaaaaa"
"aaaaaaacbabaacaaaaaaaaaaaaaaacaaabaabaaabaaaacaaaa"
"aaaaabaaaaaaaaaabaaaacabaaaaaaaaaaacbacaaaaabaacaa"
"aaaaabaaaaaaaaaaabaaaaaabaaaaababaaaaaaaaaabaaaaaa"
"aacaaaacababaaabaabcaaabbaaabbaabbbacaababaabaaaaa"
"aaaaaaaaaaaacaaaaaaaabaacaacaaaaaaaabaaaaaaaaaaaaa"
"aaacaacacaaaaaaaaacaaaaacaaaaaaacacbbcbcaaabaabaab"
"aaaaaaaaaaaccaaaaaaaabaaaaaacaacaacaaaaacaaaaaaaaa"
"aaaacbabaaabbaaaaaaaaaaaababaaaaabacaaaaaaaaaaaaab"
"cbbabaaaabaaaaaaaacbaabaaaaaabaaaaaaaaaaabaaaaaaab"
"aaccabaaaaaacaaaaaaacacaabcaaabacaaaaaaaaabaaaaaac"
"aaccaaaaaacacaaaaccbaacbabaaaacaaaaaaaabaabcaaaaba"
"acabaabaaacaaacaaaaaacaaaaaaaacacaaaaacbbbaaaaaaca"
"aacaaaaaaabaaaaaaabaabaabbaaaaaaaaaaaaaabaaaaaaaaa"
"aaaaacbaaabaaaaaaacaaaacbaaabacaaaaaaaaaaacaababaa"
"aaaaaaaaaaaaaabaaaabaaaaacaaaaaaaacaaaaaaaaaaaaaaa"
"aaaacaaaaaaaaaaaaabaaaaacacaabaaaaaaccaaaaaaaaaaaa"
"aaacaabaaaabaaaabaaaaaaaaaaacaaaaaaaabacbabbaaaaaa"
};