/* XPM */
static char *point[] = {
/* width height num_colors chars_per_pixel */
"50 50 2 1",
/* yellow */
"Y c #FFFF00",
/* background */
". c None",
/* pixels */
"..................................................",
"..................................................",
"..................................................",
"..................................................",
"..................................................",
".........................Y........................",
"...................YYYYYYYYYYYYY..................",
".................YYYYYYYYYYYYYYYYY................",
"...............YYYYYYYYYYYYYYYYYYYYY..............",
".............YYYYYYYYYYYYYYYYYYYYYYYYY............",
"............YYYYYYYYYYYYYYYYYYYYYYYYYYY...........",
"...........YYYYYYYYYYYYYYYYYYYYYYYYYYYYY..........",
"..........YYYYYYYYYYYYYYYYYYYYYYYYYYYYYYY.........",
".........YYYYYYYYYYYYYYYYYYYYYYYYYYYYYYYYY........",
".........YYYYYYYYYYYYYYYYYYYYYYYYYYYYYYYYY........",
"........YYYYYYYYYYYYYYYYYYYYYYYYYYYYYYYYYYY.......",
"........YYYYYYYYYYYYYYYYYYYYYYYYYYYYYYYYYYY.......",
".......YYYYYYYYYYYYYYYYYYYYYYYYYYYYYYYYYYYYY......",
".......YYYYYYYYYYYYYYYYYYYYYYYYYYYYYYYYYYYYY......",
"......YYYYYYYYYYYYYYYYYYYYYYYYYYYYYYYYYYYYYYY.....",
"......YYYYYYYYYYYYYYYYYYYYYYYYYYYYYYYYYYYYYYY.....",
"......YYYYYYYYYYYYYYYYYYYYYYYYYYYYYYYYYYYYYYY.....",
"......YYYYYYYYYYYYYYYYYYYYYYYYYYYYYYYYYYYYYYY.....",
"......YYYYYYYYYYYYYYYYYYYYYYYYYYYYYYYYYYYYYYY.....",
"......YYYYYYYYYYYYYYYYYYYYYYYYYYYYYYYYYYYYYYY.....",
".....YYYYYYYYYYYYYYYYYYYYYYYYYYYYYYYYYYYYYYYYY....",
"......YYYYYYYYYYYYYYYYYYYYYYYYYYYYYYYYYYYYYYY.....",
"......YYYYYYYYYYYYYYYYYYYYYYYYYYYYYYYYYYYYYYY.....",
"......YYYYYYYYYYYYYYYYYYYYYYYYYYYYYYYYYYYYYYY.....",
"......YYYYYYYYYYYYYYYYYYYYYYYYYYYYYYYYYYYYYYY.....",
"......YYYYYYYYYYYYYYYYYYYYYYYYYYYYYYYYYYYYYYY.....",
"......YYYYYYYYYYYYYYYYYYYYYYYYYYYYYYYYYYYYYYY.....",
".......YYYYYYYYYYYYYYYYYYYYYYYYYYYYYYYYYYYYY......",
".......YYYYYYYYYYYYYYYYYYYYYYYYYYYYYYYYYYYYY......",
"........YYYYYYYYYYYYYYYYYYYYYYYYYYYYYYYYYYY.......",
"........YYYYYYYYYYYYYYYYYYYYYYYYYYYYYYYYYYY.......",
".........YYYYYYYYYYYYYYYYYYYYYYYYYYYYYYYYY........",
".........YYYYYYYYYYYYYYYYYYYYYYYYYYYYYYYYY........",
"..........YYYYYYYYYYYYYYYYYYYYYYYYYYYYYYY.........",
"...........YYYYYYYYYYYYYYYYYYYYYYYYYYYYY..........",
"............YYYYYYYYYYYYYYYYYYYYYYYYYYY...........",
".............YYYYYYYYYYYYYYYYYYYYYYYYY............",
"...............YYYYYYYYYYYYYYYYYYYYY..............",
".................YYYYYYYYYYYYYYYYY................",
"...................YYYYYYYYYYYYY..................",
".........................Y........................",
"..................................................",
"..................................................",
"..................................................",
"..................................................",
};