/* XPM */
static char * wall_xpm[] = {
"50 50 3 1",
"a c #A9A9A9",
"b c #C0C0C0",
"c c #787878",
/* pixels */
"caaaaaaaaacababaaaaacaaaaaaaaacaaaaaaaaacaaabaaaaa"
"caaaabaaaacaaaaaaaaacbaaaaaaaacaaabaaaaacaaaaaaaaa"
"cbaaaaaaaacaaaaaaaaacaaaaabbbacaaaabaaaacaaaaaaaaa"
"caaaaaaaaacaaaaaaaaacaaaaaabaacaaaaaaaaacaaaaaaaaa"
"caaaaaaaaacbaabaaaaacaaabaabbacaaaaaaaaacaaaabaaaa"
"caaabaaaaacaaabaabaacabaaaaaaacaaaaaaaaacaaaaaaaba"
"caaaaaaaaacaaaaabaaacaaaaaabaacaaaaaaabacbaaaaaaaa"
"caaaaaaaaacaaaaaaaaacabaaaabaacaaaaabaabcaaaababaa"
"caaaaaaabacbaaabaaaacaaaabaaabcaaabaaabacaaaaababa"
"cbabaaaaaacabbabbaabcaabaaabaacaaaaaaaaacaabaaaaaa"
"caaaaaaabacaaaaaaaaacaaaaaaaaacaaaaaaaaacaaaaaaaaa"
"caaaaaaaaacaaaaaaabacaaaaaaaaacaabaaaaaacbaaababaa"
"cbbaaaaaaacaaaaaaabbcaaaaaaaaacaaaaaaaabcaaaaaaaaa"
"caaaaaaaaacaaaaaaaaacaaaaabaaacaaaaaaaaacaaaaaaaba"
"caaaaaaabacaaaabaaaacaaaaaaaaacaaaabaaaacaaaaaaaaa"
"cabaaaaaaacaaabaaaaacaaaaaaaaacaaaaaaaaacbaaaaaaaa"
"caaabaaaaacaaaaaaaaacaaabaaaaacaaaaaaaaacaaaaaaaab"
"cbaabbaaaacaaaaaaaaacaaaaaaaaacaaaaaaaaacaaaaaaaaa"
"caaabaaabacaaaaaaabacaaaaaaaaacaaaaaaaaacabaaaaaaa"
"cabaaaaaaacaaababaaacaaaaaabaacaaaaaaaaacaaaaaaaaa"
"caaaaaaaaacaaaaaaaaacaaaabaaaacaaaaaaaaacaaaaaaaaa"
"cabaaaaaabcaaaabaaaacaaabaaaaacaaabbaabbcaaaaaaaab"
"caaaaababacaaaaaaaaacaaaaaaaaacaaaaaaaaacaaaaaaaab"
"cbbaaaaaaacbaaaaaabacaaaaaaaaacaaaaaabaacaaaaaaaaa"
"caaaaaaaabcbaaabaabacbbaaabaaacaaaababaacaaaaaaaba"
"cbaaaaaaaacaaaaaaaaacaaaabaaaacaaaaaaaaacaabaaabaa"
"caaabaabaacaaaaaaaaacbaaaaaaaacaaabaaaaacaaaaaaaaa"
"caaaaaaaaacaaaaaaaaacaabaabaaacaaaaaaaaacaaaaababa"
"caaaaaaabacaabaaaaaacaaaaaaabacaaaaaaaaacaaaaaaaaa"
"caaaaaaaaacaabaaaaaacabaaaaaaacaaaaaaaaacaaaaaaaaa"
"caaaaaaaaacaaaaaaaaacaaaaaaaaacaaaaaaaaacaaaaaaaaa"
"caaaaaaaaacaaaaaaaaacaaabaaaaacbaaaabaaacaaaaaaaaa"
"caabaaaaaacaaababaaacaaaaaababcaaabaaabacaaaaabaaa"
"caaaaaaaabcaaababaaacaaaaaabaacaaaaaabaacbbaaaaaaa"
"caaabaaaaacaaaaaaaaacaaaaaaaaacaaaabaaaacaaaaaaaaa"
"caaaaaaabacaabaaaaaacaaaaaaaaacaaaaaaaaacaaaaabaaa"
"cabaaaaaaacaaaaaaaaacaaaaaaaabcaabaaaaaacaaaaaaaaa"
"caaaaabbaacaaaaaaaaacaaaaabaaacaaaaaaaaacaaaaaaaaa"
"caaaabaaaacaaaaaaaaacaaaaaaaabcaaaaabaaacaaaaaaaaa"
"caaaaaaaaacbbaaaaaaacaaaaaaaaacaaaaaaaaacaaaaaaaaa"
"caaaaaaaaacaaaaaaaaacaaaaaaaaacaabaaaaaacbaaaaaaaa"
"cbaaaaaaaacaaaaaaaaacaabaaabaacaaaaaababcaabaabaaa"
"caaaaaabaacaaaaaaabacaaaaabaaacaaaaaaaaacaaaaaaaaa"
"caaaaaaaaacaaaaaaaaacaaaaaaaaacaaaaaaaabcbaaaaaaaa"
"cabbaaaaaacaaaaaaaaacaaaaaaaaacaaaaaaaaacbaaaaaaab"
"caaaaaaaaacaaaaaaaaacaaaabaaaacbbaaaaaaacaaabbabba"
"cbaaaaaaaacbabaaaaaacaaaaaaaaacaaaaaaaaacabaabbaaa"
"caaaaaaaaacaaaaaabaacaaaaaaaaacaaaaaaaaacaaaaaaaaa"
"cabaaaaaaacaabaaabaacaaaaaaaaacaaaaaaaaacaaaaaaaaa"
"caaaaaaabacaaaaaaaaacaaaaaaaaacaaaaaaaabcabbaaaaba"
};