/* XPM */
static char *drain_xpm[] = {
"50 50 3 1",
"B c #000000",
"W c None",
"D c #808080",
"BBBBBBBBBBBBBBBBBBBBBBBBBBBBBBBBBBBBBBBBBBBBBBBBBB",
"BWWWWWWWWWWWWWWWWWWWWWWWWWWWWWWWWWWWWWWWWWWWWWWWWB",
"BWWWWWWWWWWWWWWWWWWWWWWWWWWWWWWWWWWWWWWWWWWWWWWWWB",
"BWWWWWWWWWWWWWWWWWWWWWWWWWWWWWWWWWWWWWWWWWWWWWWWWB",
"BWWWWWWWWWWWWWWWWWWWWWWWWBWWWWWWWWWWWWWWWWWWWWWWWB",
"BWWWWWWWWWWWWWWWWWWBBBBBBBBBBBBBWWWWWWWWWWWWWWWWWB",
"BWWWWWWWWWWWWWWWWBBDDDDDDDDDDDDDBBWWWWWWWWWWWWWWWB",
"BWWWWWWWWWWWWWWBBDDDDDDDDDDDDDDDDDBBWWWWWWWWWWWWWB",
"BWWWWWWWWWWWWBBDWWWDDDDDWWWDDDDDWWWDBBWWWWWWWWWWWB",
"BWWWWWWWWWWWBBDDWWWDDDDDWWWDDDDDWWWDDBBWWWWWWWWWWB",
"BWWWWWWWWWWBDDDDWWWDDDDDWWWDDDDDWWWDDDDBWWWWWWWWWB",
"BWWWWWWWWWBDDDDDDDDDDDDDDDDDDDDDDDDDDDDDBWWWWWWWWB",
"BWWWWWWWWBDDDDDDDDDDDDDDDDDDDDDDDDDDDDDDDBWWWWWWWB",
"BWWWWWWWBBDDDDDDDDDDDDDDDDDDDDDDDDDDDDDDDBBWWWWWWB",
"BWWWWWWWBDDDDDDDDDDDDDDDDDDDDDDDDDDDDDDDDDBWWWWWWB",
"BWWWWWWBDDDDDDDDDDDDDDDDDDDDDDDDDDDDDDDDDDDBWWWWWB",
"BWWWWWWBWWWDDDDDWWWDDDDDWWWDDDDDWWWDDDDDWWWBWWWWWB",
"BWWWWWBDWWWDDDDDWWWDDDDDWWWDDDDDWWWDDDDDWWWDBWWWWB",
"BWWWWWBDWWWDDDDDWWWDDDDDWWWDDDDDWWWDDDDDWWWDBWWWWB",
"BWWWWBDDDDDDDDDDDDDDDDDDDDDDDDDDDDDDDDDDDDDDDBWWWB",
"BWWWWBDDDDDDDDDDDDDDDDDDDDDDDDDDDDDDDDDDDDDDDBWWWB",
"BWWWWBDDDDDDDDDDDDDDDDDDDDDDDDDDDDDDDDDDDDDDDBWWWB",
"BWWWWBDDDDDDDDDDDDDDDDDDDDDDDDDDDDDDDDDDDDDDDBWWWB",
"BWWWWBDDDDDDDDDDDDDDDDDDDDDDDDDDDDDDDDDDDDDDDBWWWB",
"BWWWWBDDWWWDDDDDWWWDDDDDWWWDDDDDWWWDDDDDWWWDDBWWWB",
"BWWWBBDDWWWDDDDDWWWDDDDDWWWDDDDDWWWDDDDDWWWDDBBWWB",
"BWWWWBDDWWWDDDDDWWWDDDDDWWWDDDDDWWWDDDDDWWWDDBWWWB",
"BWWWWBDDDDDDDDDDDDDDDDDDDDDDDDDDDDDDDDDDDDDDDBWWWB",
"BWWWWBDDDDDDDDDDDDDDDDDDDDDDDDDDDDDDDDDDDDDDDBWWWB",
"BWWWWBDDDDDDDDDDDDDDDDDDDDDDDDDDDDDDDDDDDDDDDBWWWB",
"BWWWWBDDDDDDDDDDDDDDDDDDDDDDDDDDDDDDDDDDDDDDDBWWWB",
"BWWWWBDDDDDDDDDDDDDDDDDDDDDDDDDDDDDDDDDDDDDDDBWWWB",
"BWWWWWBDWWWDDDDDWWWDDDDDWWWDDDDDWWWDDDDDWWWDBWWWWB",
"BWWWWWBDWWWDDDDDWWWDDDDDWWWDDDDDWWWDDDDDWWWDBWWWWB",
"BWWWWWWBWWWDDDDDWWWDDDDDWWWDDDDDWWWDDDDDWWWBWWWWWB",
"BWWWWWWBDDDDDDDDDDDDDDDDDDDDDDDDDDDDDDDDDDDBWWWWWB",
"BWWWWWWWBDDDDDDDDDDDDDDDDDDDDDDDDDDDDDDDDDBWWWWWWB",
"BWWWWWWWBBDDDDDDDDDDDDDDDDDDDDDDDDDDDDDDDBBWWWWWWB",
"BWWWWWWWWBDDDDDDDDDDDDDDDDDDDDDDDDDDDDDDDBWWWWWWWB",
"BWWWWWWWWWBDDDDDDDDDDDDDDDDDDDDDDDDDDDDDBWWWWWWWWB",
"BWWWWWWWWWWBDDDDWWWDDDDDWWWDDDDDWWWDDDDBWWWWWWWWWB",
"BWWWWWWWWWWWBBDDWWWDDDDDWWWDDDDDWWWDDBBWWWWWWWWWWB",
"BWWWWWWWWWWWWBBDWWWDDDDDWWWDDDDDWWWDBBWWWWWWWWWWWB",
"BWWWWWWWWWWWWWWBBDDDDDDDDDDDDDDDDDBBWWWWWWWWWWWWWB",
"BWWWWWWWWWWWWWWWWBBDDDDDDDDDDDDDBBWWWWWWWWWWWWWWWB",
"BWWWWWWWWWWWWWWWWWWBBBBBBBBBBBBBWWWWWWWWWWWWWWWWWB",
"BWWWWWWWWWWWWWWWWWWWWWWWWBWWWWWWWWWWWWWWWWWWWWWWWB",
"BWWWWWWWWWWWWWWWWWWWWWWWWWWWWWWWWWWWWWWWWWWWWWWWWB",
"BWWWWWWWWWWWWWWWWWWWWWWWWWWWWWWWWWWWWWWWWWWWWWWWWB",
"BBBBBBBBBBBBBBBBBBBBBBBBBBBBBBBBBBBBBBBBBBBBBBBBBB"
};